<svg xmlns="http://www.w3.org/2000/svg" xmlns:xlink="http://www.w3.org/1999/xlink" width="128" zoomAndPan="magnify" viewBox="0 0 96 95.999999" height="128" preserveAspectRatio="xMidYMid meet" version="1.0"><defs><clipPath id="fff263a435"><path d="M 3 2 L 72 2 L 72 94 L 3 94 Z M 3 2 " clip-rule="nonzero"/></clipPath><clipPath id="02c184c327"><path d="M -22.894531 29.300781 L 57.445312 -9.570312 L 91.417969 60.640625 L 11.074219 99.511719 Z M -22.894531 29.300781 " clip-rule="nonzero"/></clipPath><clipPath id="6afaade025"><path d="M -22.894531 29.300781 L 57.445312 -9.570312 L 91.417969 60.640625 L 11.074219 99.511719 Z M -22.894531 29.300781 " clip-rule="nonzero"/></clipPath><clipPath id="90dd46064e"><path d="M 19.199219 44 L 40 44 L 40 62 L 19.199219 62 Z M 19.199219 44 " clip-rule="nonzero"/></clipPath><clipPath id="102d72e781"><path d="M 19.199219 25.003906 L 54 25.003906 L 54 42 L 19.199219 42 Z M 19.199219 25.003906 " clip-rule="nonzero"/></clipPath><clipPath id="7423ea11db"><path d="M 70 44 L 95.699219 44 L 95.699219 62 L 70 62 Z M 70 44 " clip-rule="nonzero"/></clipPath><clipPath id="92acb443d6"><path d="M 61 63 L 95.699219 63 L 95.699219 80.503906 L 61 80.503906 Z M 61 63 " clip-rule="nonzero"/></clipPath><clipPath id="313767f8d5"><path d="M 19.199219 63 L 54 63 L 54 80.503906 L 19.199219 80.503906 Z M 19.199219 63 " clip-rule="nonzero"/></clipPath><clipPath id="0fdefad855"><path d="M 61 25.003906 L 95.699219 25.003906 L 95.699219 42 L 61 42 Z M 61 25.003906 " clip-rule="nonzero"/></clipPath></defs><rect x="-9.6" width="115.2" fill="#ffffff" y="-9.6" height="115.199999" fill-opacity="1"/><rect x="-9.6" width="115.2" fill="#ffffff" y="-9.6" height="115.199999" fill-opacity="1"/><g clip-path="url(#fff263a435)"><g clip-path="url(#02c184c327)"><g clip-path="url(#6afaade025)"><path fill="#8ed5ff" d="M 38.554688 3.796875 C 22.03125 7.582031 9.441406 20.839844 5.710938 37.796875 C 3.207031 49.199219 2.800781 61.347656 3.433594 73.164062 C 3.769531 79.390625 4.703125 86.320312 9.402344 90.414062 C 13.40625 93.902344 19.277344 94.304688 24.117188 92.609375 C 28.953125 90.910156 32.9375 87.421875 36.539062 83.742188 C 45.394531 74.691406 52.621094 64.121094 59.800781 53.605469 C 63.679688 47.929688 67.601562 42.160156 69.785156 35.558594 C 71.972656 28.957031 72.230469 21.300781 68.90625 15.027344 C 64.148438 6.03125 53.105469 2.042969 43.355469 3.007812 C 41.730469 3.167969 40.132812 3.4375 38.554688 3.800781 Z M 38.554688 3.796875 " fill-opacity="1" fill-rule="nonzero"/></g></g></g><path fill="#000000" d="M 49.082031 33.449219 C 49.082031 33.609375 49.050781 33.765625 48.992188 33.914062 C 48.929688 34.058594 48.84375 34.191406 48.734375 34.304688 C 48.621094 34.417969 48.492188 34.503906 48.34375 34.566406 C 48.199219 34.625 48.046875 34.65625 47.886719 34.65625 C 47.730469 34.65625 47.578125 34.625 47.429688 34.566406 C 47.285156 34.503906 47.15625 34.417969 47.042969 34.304688 C 46.929688 34.191406 46.84375 34.058594 46.78125 33.914062 C 46.722656 33.765625 46.691406 33.609375 46.691406 33.449219 C 46.691406 33.289062 46.722656 33.136719 46.78125 32.988281 C 46.84375 32.839844 46.929688 32.710938 47.042969 32.597656 C 47.15625 32.484375 47.285156 32.398438 47.429688 32.335938 C 47.578125 32.273438 47.730469 32.246094 47.886719 32.246094 C 48.046875 32.246094 48.199219 32.273438 48.34375 32.335938 C 48.492188 32.398438 48.621094 32.484375 48.734375 32.597656 C 48.84375 32.710938 48.929688 32.839844 48.992188 32.988281 C 49.050781 33.136719 49.082031 33.289062 49.082031 33.449219 Z M 49.082031 33.449219 " fill-opacity="1" fill-rule="nonzero"/><path fill="#000000" d="M 44.300781 33.449219 C 44.300781 33.609375 44.269531 33.765625 44.210938 33.914062 C 44.148438 34.058594 44.0625 34.191406 43.953125 34.304688 C 43.839844 34.417969 43.710938 34.503906 43.5625 34.566406 C 43.417969 34.625 43.265625 34.65625 43.105469 34.65625 C 42.949219 34.65625 42.796875 34.625 42.648438 34.566406 C 42.503906 34.503906 42.375 34.417969 42.261719 34.304688 C 42.148438 34.191406 42.0625 34.058594 42 33.914062 C 41.941406 33.765625 41.910156 33.609375 41.910156 33.449219 C 41.910156 33.289062 41.941406 33.136719 42 32.988281 C 42.0625 32.839844 42.148438 32.710938 42.261719 32.597656 C 42.375 32.484375 42.503906 32.398438 42.648438 32.335938 C 42.796875 32.273438 42.949219 32.246094 43.105469 32.246094 C 43.265625 32.246094 43.417969 32.273438 43.5625 32.335938 C 43.710938 32.398438 43.839844 32.484375 43.953125 32.597656 C 44.0625 32.710938 44.148438 32.839844 44.210938 32.988281 C 44.269531 33.136719 44.300781 33.289062 44.300781 33.449219 Z M 44.300781 33.449219 " fill-opacity="1" fill-rule="nonzero"/><path fill="#000000" d="M 25.175781 32.246094 C 24.519531 32.246094 23.980469 32.789062 23.980469 33.449219 C 23.980469 34.113281 24.519531 34.65625 25.175781 34.65625 L 35.933594 34.65625 C 36.589844 34.65625 37.128906 34.113281 37.128906 33.449219 C 37.128906 32.789062 36.589844 32.246094 35.933594 32.246094 Z M 25.175781 32.246094 " fill-opacity="1" fill-rule="nonzero"/><path fill="#000000" d="M 35.933594 51.546875 L 25.175781 51.546875 C 24.519531 51.546875 23.980469 52.089844 23.980469 52.753906 C 23.980469 53.417969 24.519531 53.960938 25.175781 53.960938 L 35.933594 53.960938 C 36.589844 53.960938 37.128906 53.417969 37.128906 52.753906 C 37.128906 52.089844 36.589844 51.546875 35.933594 51.546875 Z M 35.933594 51.546875 " fill-opacity="1" fill-rule="nonzero"/><path fill="#000000" d="M 49.082031 72.058594 C 49.082031 72.21875 49.050781 72.375 48.992188 72.519531 C 48.929688 72.667969 48.84375 72.800781 48.734375 72.914062 C 48.621094 73.027344 48.492188 73.113281 48.34375 73.175781 C 48.199219 73.234375 48.046875 73.265625 47.886719 73.265625 C 47.730469 73.265625 47.578125 73.234375 47.429688 73.175781 C 47.285156 73.113281 47.15625 73.027344 47.042969 72.914062 C 46.929688 72.800781 46.84375 72.667969 46.78125 72.519531 C 46.722656 72.375 46.691406 72.21875 46.691406 72.058594 C 46.691406 71.898438 46.722656 71.746094 46.78125 71.597656 C 46.84375 71.449219 46.929688 71.320312 47.042969 71.207031 C 47.15625 71.09375 47.285156 71.007812 47.429688 70.945312 C 47.578125 70.882812 47.730469 70.851562 47.886719 70.851562 C 48.046875 70.851562 48.199219 70.882812 48.34375 70.945312 C 48.492188 71.007812 48.621094 71.09375 48.734375 71.207031 C 48.84375 71.320312 48.929688 71.449219 48.992188 71.597656 C 49.050781 71.746094 49.082031 71.898438 49.082031 72.058594 Z M 49.082031 72.058594 " fill-opacity="1" fill-rule="nonzero"/><path fill="#000000" d="M 44.300781 72.058594 C 44.300781 72.21875 44.269531 72.375 44.210938 72.519531 C 44.148438 72.667969 44.0625 72.800781 43.953125 72.914062 C 43.839844 73.027344 43.710938 73.113281 43.5625 73.175781 C 43.417969 73.234375 43.265625 73.265625 43.105469 73.265625 C 42.949219 73.265625 42.796875 73.234375 42.648438 73.175781 C 42.503906 73.113281 42.375 73.027344 42.261719 72.914062 C 42.148438 72.800781 42.0625 72.667969 42 72.519531 C 41.941406 72.375 41.910156 72.21875 41.910156 72.058594 C 41.910156 71.898438 41.941406 71.746094 42 71.597656 C 42.0625 71.449219 42.148438 71.320312 42.261719 71.207031 C 42.375 71.09375 42.503906 71.007812 42.648438 70.945312 C 42.796875 70.882812 42.949219 70.851562 43.105469 70.851562 C 43.265625 70.851562 43.417969 70.882812 43.5625 70.945312 C 43.710938 71.007812 43.839844 71.09375 43.953125 71.207031 C 44.0625 71.320312 44.148438 71.449219 44.210938 71.597656 C 44.269531 71.746094 44.300781 71.898438 44.300781 72.058594 Z M 44.300781 72.058594 " fill-opacity="1" fill-rule="nonzero"/><path fill="#000000" d="M 35.933594 70.851562 L 25.175781 70.851562 C 24.519531 70.851562 23.980469 71.394531 23.980469 72.058594 C 23.980469 72.722656 24.519531 73.265625 25.175781 73.265625 L 35.933594 73.265625 C 36.589844 73.265625 37.128906 72.722656 37.128906 72.058594 C 37.128906 71.394531 36.589844 70.851562 35.933594 70.851562 Z M 35.933594 70.851562 " fill-opacity="1" fill-rule="nonzero"/><path fill="#000000" d="M 68.207031 33.449219 C 68.207031 33.609375 68.175781 33.765625 68.117188 33.914062 C 68.054688 34.058594 67.96875 34.191406 67.859375 34.304688 C 67.746094 34.417969 67.617188 34.503906 67.46875 34.566406 C 67.324219 34.625 67.171875 34.65625 67.011719 34.65625 C 66.855469 34.65625 66.703125 34.625 66.554688 34.566406 C 66.410156 34.503906 66.28125 34.417969 66.167969 34.304688 C 66.054688 34.191406 65.96875 34.058594 65.90625 33.914062 C 65.847656 33.765625 65.816406 33.609375 65.816406 33.449219 C 65.816406 33.289062 65.847656 33.136719 65.90625 32.988281 C 65.96875 32.839844 66.054688 32.710938 66.167969 32.597656 C 66.28125 32.484375 66.410156 32.398438 66.554688 32.335938 C 66.703125 32.273438 66.855469 32.246094 67.011719 32.246094 C 67.171875 32.246094 67.324219 32.273438 67.46875 32.335938 C 67.617188 32.398438 67.746094 32.484375 67.859375 32.597656 C 67.96875 32.710938 68.054688 32.839844 68.117188 32.988281 C 68.175781 33.136719 68.207031 33.289062 68.207031 33.449219 Z M 68.207031 33.449219 " fill-opacity="1" fill-rule="nonzero"/><path fill="#000000" d="M 72.988281 33.449219 C 72.988281 33.609375 72.957031 33.765625 72.898438 33.914062 C 72.835938 34.058594 72.75 34.191406 72.640625 34.304688 C 72.527344 34.417969 72.398438 34.503906 72.25 34.566406 C 72.105469 34.625 71.953125 34.65625 71.792969 34.65625 C 71.636719 34.65625 71.484375 34.625 71.335938 34.566406 C 71.191406 34.503906 71.0625 34.417969 70.949219 34.304688 C 70.835938 34.191406 70.75 34.058594 70.6875 33.914062 C 70.628906 33.765625 70.597656 33.609375 70.597656 33.449219 C 70.597656 33.289062 70.628906 33.136719 70.6875 32.988281 C 70.75 32.839844 70.835938 32.710938 70.949219 32.597656 C 71.0625 32.484375 71.191406 32.398438 71.335938 32.335938 C 71.484375 32.273438 71.636719 32.246094 71.792969 32.246094 C 71.953125 32.246094 72.105469 32.273438 72.25 32.335938 C 72.398438 32.398438 72.527344 32.484375 72.640625 32.597656 C 72.75 32.710938 72.835938 32.839844 72.898438 32.988281 C 72.957031 33.136719 72.988281 33.289062 72.988281 33.449219 Z M 72.988281 33.449219 " fill-opacity="1" fill-rule="nonzero"/><path fill="#000000" d="M 89.722656 32.246094 L 78.964844 32.246094 C 78.308594 32.246094 77.769531 32.789062 77.769531 33.449219 C 77.769531 34.113281 78.308594 34.65625 78.964844 34.65625 L 89.722656 34.65625 C 90.378906 34.65625 90.917969 34.113281 90.917969 33.449219 C 90.917969 32.789062 90.378906 32.246094 89.722656 32.246094 Z M 89.722656 32.246094 " fill-opacity="1" fill-rule="nonzero"/><path fill="#000000" d="M 68.207031 72.058594 C 68.207031 72.21875 68.175781 72.375 68.117188 72.519531 C 68.054688 72.667969 67.96875 72.800781 67.859375 72.914062 C 67.746094 73.027344 67.617188 73.113281 67.46875 73.175781 C 67.324219 73.234375 67.171875 73.265625 67.011719 73.265625 C 66.855469 73.265625 66.703125 73.234375 66.554688 73.175781 C 66.410156 73.113281 66.28125 73.027344 66.167969 72.914062 C 66.054688 72.800781 65.96875 72.667969 65.90625 72.519531 C 65.847656 72.375 65.816406 72.21875 65.816406 72.058594 C 65.816406 71.898438 65.847656 71.746094 65.90625 71.597656 C 65.96875 71.449219 66.054688 71.320312 66.167969 71.207031 C 66.28125 71.09375 66.410156 71.007812 66.554688 70.945312 C 66.703125 70.882812 66.855469 70.851562 67.011719 70.851562 C 67.171875 70.851562 67.324219 70.882812 67.46875 70.945312 C 67.617188 71.007812 67.746094 71.09375 67.859375 71.207031 C 67.96875 71.320312 68.054688 71.449219 68.117188 71.597656 C 68.175781 71.746094 68.207031 71.898438 68.207031 72.058594 Z M 68.207031 72.058594 " fill-opacity="1" fill-rule="nonzero"/><path fill="#000000" d="M 72.988281 72.058594 C 72.988281 72.21875 72.957031 72.375 72.898438 72.519531 C 72.835938 72.667969 72.75 72.800781 72.640625 72.914062 C 72.527344 73.027344 72.398438 73.113281 72.25 73.175781 C 72.105469 73.234375 71.953125 73.265625 71.792969 73.265625 C 71.636719 73.265625 71.484375 73.234375 71.335938 73.175781 C 71.191406 73.113281 71.0625 73.027344 70.949219 72.914062 C 70.835938 72.800781 70.75 72.667969 70.6875 72.519531 C 70.628906 72.375 70.597656 72.21875 70.597656 72.058594 C 70.597656 71.898438 70.628906 71.746094 70.6875 71.597656 C 70.75 71.449219 70.835938 71.320312 70.949219 71.207031 C 71.0625 71.09375 71.191406 71.007812 71.335938 70.945312 C 71.484375 70.882812 71.636719 70.851562 71.792969 70.851562 C 71.953125 70.851562 72.105469 70.882812 72.25 70.945312 C 72.398438 71.007812 72.527344 71.09375 72.640625 71.207031 C 72.75 71.320312 72.835938 71.449219 72.898438 71.597656 C 72.957031 71.746094 72.988281 71.898438 72.988281 72.058594 Z M 72.988281 72.058594 " fill-opacity="1" fill-rule="nonzero"/><path fill="#000000" d="M 89.722656 73.265625 C 90.378906 73.265625 90.917969 72.722656 90.917969 72.058594 C 90.917969 71.394531 90.378906 70.851562 89.722656 70.851562 L 78.964844 70.851562 C 78.308594 70.851562 77.769531 71.394531 77.769531 72.058594 C 77.769531 72.722656 78.308594 73.265625 78.964844 73.265625 Z M 89.722656 73.265625 " fill-opacity="1" fill-rule="nonzero"/><g clip-path="url(#90dd46064e)"><path fill="#000000" d="M 22.785156 61.199219 L 34.378906 61.199219 C 34.261719 60.539062 34.140625 59.8125 34.140625 59.089844 C 34.140625 58.96875 34.140625 58.910156 34.140625 58.789062 L 22.785156 58.789062 C 22.128906 58.789062 21.589844 58.246094 21.589844 57.582031 L 21.589844 47.929688 C 21.589844 47.265625 22.128906 46.722656 22.785156 46.722656 L 39.28125 46.722656 C 39.460938 45.878906 39.699219 45.09375 40 44.308594 L 22.785156 44.308594 C 20.8125 44.308594 19.199219 45.9375 19.199219 47.929688 L 19.199219 57.582031 C 19.199219 59.570312 20.8125 61.199219 22.785156 61.199219 Z M 22.785156 61.199219 " fill-opacity="1" fill-rule="nonzero"/></g><g clip-path="url(#102d72e781)"><path fill="#000000" d="M 22.785156 41.898438 L 41.3125 41.898438 C 41.910156 40.992188 42.628906 40.207031 43.464844 39.484375 L 22.785156 39.484375 C 22.128906 39.484375 21.589844 38.941406 21.589844 38.277344 L 21.589844 28.625 C 21.589844 27.960938 22.128906 27.417969 22.785156 27.417969 L 50.277344 27.417969 C 50.933594 27.417969 51.472656 27.960938 51.472656 28.625 L 51.472656 36.46875 C 52.308594 36.46875 53.085938 36.589844 53.863281 36.707031 L 53.863281 28.625 C 53.863281 26.632812 52.25 25.003906 50.277344 25.003906 L 22.785156 25.003906 C 20.8125 25.003906 19.199219 26.632812 19.199219 28.625 L 19.199219 38.277344 C 19.199219 40.269531 20.8125 41.898438 22.785156 41.898438 Z M 22.785156 41.898438 " fill-opacity="1" fill-rule="nonzero"/></g><path fill="#000000" d="M 41.433594 49.375 C 41.433594 50.222656 41.550781 51.003906 41.730469 51.851562 C 38.683594 52.753906 36.589844 55.652344 36.589844 59.089844 C 36.53125 63.25 39.757812 66.628906 43.761719 66.628906 L 71.136719 66.628906 C 75.140625 66.628906 78.367188 63.25 78.367188 59.089844 C 78.367188 54.925781 75.140625 51.546875 71.136719 51.546875 L 70.898438 51.546875 C 70.539062 47.023438 66.894531 43.464844 62.53125 43.464844 C 61.632812 43.464844 60.738281 43.585938 59.898438 43.886719 C 58.105469 40.8125 54.878906 38.941406 51.414062 38.941406 C 45.914062 38.878906 41.433594 43.585938 41.433594 49.375 Z M 58.285156 45.878906 C 58.585938 46.480469 59.300781 46.78125 59.898438 46.480469 C 60.738281 46.058594 61.574219 45.878906 62.53125 45.878906 C 65.875 45.878906 68.566406 48.773438 68.566406 52.273438 C 68.566406 52.816406 68.507812 53.417969 68.265625 53.902344 C 67.730469 55.347656 69.941406 56.253906 70.480469 54.804688 C 70.597656 54.503906 70.65625 54.203125 70.71875 53.960938 C 71.734375 53.960938 72.75 54.144531 73.585938 54.6875 C 74.242188 55.109375 74.78125 55.710938 75.199219 56.375 C 75.679688 57.21875 75.917969 58.125 75.917969 59.089844 C 75.917969 61.925781 73.765625 64.21875 71.078125 64.21875 L 43.761719 64.21875 C 41.074219 64.21875 38.921875 61.925781 38.921875 59.089844 C 38.921875 56.496094 40.714844 54.324219 43.105469 53.960938 C 43.941406 53.839844 44.660156 53.238281 44.300781 52.332031 C 43.941406 51.367188 43.761719 50.402344 43.761719 49.375 C 43.824219 44.914062 47.230469 41.292969 51.414062 41.292969 C 54.34375 41.292969 57.03125 43.101562 58.285156 45.878906 Z M 58.285156 45.878906 " fill-opacity="1" fill-rule="nonzero"/><path fill="#000000" d="M 47.289062 49.136719 C 47.289062 49.800781 47.828125 50.34375 48.484375 50.34375 C 49.140625 50.34375 49.679688 49.800781 49.679688 49.136719 C 49.679688 47.808594 50.757812 46.722656 52.070312 46.722656 C 52.726562 46.722656 53.265625 46.179688 53.265625 45.515625 C 53.265625 44.851562 52.726562 44.308594 52.070312 44.308594 C 49.441406 44.308594 47.289062 46.480469 47.289062 49.136719 Z M 47.289062 49.136719 " fill-opacity="1" fill-rule="nonzero"/><path fill="#000000" d="M 89.722656 53.960938 C 90.378906 53.960938 90.917969 53.417969 90.917969 52.753906 C 90.917969 52.089844 90.378906 51.546875 89.722656 51.546875 L 78.964844 51.546875 C 78.546875 51.546875 78.1875 51.730469 78.007812 52.089844 C 78.546875 52.632812 79.023438 53.296875 79.445312 53.960938 Z M 89.722656 53.960938 " fill-opacity="1" fill-rule="nonzero"/><g clip-path="url(#7423ea11db)"><path fill="#000000" d="M 92.113281 44.308594 L 70.179688 44.308594 C 70.898438 45.035156 71.496094 45.816406 71.972656 46.722656 L 92.113281 46.722656 C 92.769531 46.722656 93.308594 47.265625 93.308594 47.929688 L 93.308594 57.582031 C 93.308594 58.246094 92.769531 58.789062 92.113281 58.789062 L 80.757812 58.789062 C 80.757812 58.910156 80.757812 58.96875 80.757812 59.089844 C 80.757812 59.8125 80.699219 60.539062 80.519531 61.199219 L 92.113281 61.199219 C 94.085938 61.199219 95.699219 59.570312 95.699219 57.582031 L 95.699219 47.929688 C 95.699219 45.9375 94.085938 44.308594 92.113281 44.308594 Z M 92.113281 44.308594 " fill-opacity="1" fill-rule="nonzero"/></g><g clip-path="url(#92acb443d6)"><path fill="#000000" d="M 92.113281 63.613281 L 79.683594 63.613281 C 79.265625 64.519531 78.667969 65.304688 78.007812 66.027344 L 92.113281 66.027344 C 92.769531 66.027344 93.308594 66.570312 93.308594 67.234375 L 93.308594 76.886719 C 93.308594 77.550781 92.769531 78.09375 92.113281 78.09375 L 64.621094 78.09375 C 63.964844 78.09375 63.425781 77.550781 63.425781 76.886719 L 63.425781 69.042969 L 61.035156 69.042969 L 61.035156 76.886719 C 61.035156 78.875 62.648438 80.503906 64.621094 80.503906 L 92.113281 80.503906 C 94.085938 80.503906 95.699219 78.875 95.699219 76.886719 L 95.699219 67.234375 C 95.699219 65.242188 94.085938 63.613281 92.113281 63.613281 Z M 92.113281 63.613281 " fill-opacity="1" fill-rule="nonzero"/></g><g clip-path="url(#313767f8d5)"><path fill="#000000" d="M 51.472656 76.886719 C 51.472656 77.550781 50.933594 78.09375 50.277344 78.09375 L 22.785156 78.09375 C 22.128906 78.09375 21.589844 77.550781 21.589844 76.886719 L 21.589844 67.234375 C 21.589844 66.570312 22.128906 66.027344 22.785156 66.027344 L 36.890625 66.027344 C 36.234375 65.304688 35.636719 64.519531 35.21875 63.613281 L 22.785156 63.613281 C 20.8125 63.613281 19.199219 65.242188 19.199219 67.234375 L 19.199219 76.886719 C 19.199219 78.875 20.8125 80.503906 22.785156 80.503906 L 50.277344 80.503906 C 52.25 80.503906 53.863281 78.875 53.863281 76.886719 L 53.863281 69.042969 L 51.472656 69.042969 Z M 51.472656 76.886719 " fill-opacity="1" fill-rule="nonzero"/></g><g clip-path="url(#0fdefad855)"><path fill="#000000" d="M 92.113281 25.003906 L 64.621094 25.003906 C 62.648438 25.003906 61.035156 26.632812 61.035156 28.625 L 61.035156 38.277344 C 61.035156 39.363281 61.515625 40.328125 62.289062 40.992188 C 62.351562 40.992188 62.46875 40.992188 62.53125 40.992188 C 64.023438 40.992188 65.457031 41.292969 66.714844 41.898438 L 92.113281 41.898438 C 94.085938 41.898438 95.699219 40.269531 95.699219 38.277344 L 95.699219 28.625 C 95.699219 26.632812 94.085938 25.003906 92.113281 25.003906 Z M 93.308594 38.277344 C 93.308594 38.941406 92.769531 39.484375 92.113281 39.484375 L 64.621094 39.484375 C 63.964844 39.484375 63.425781 38.941406 63.425781 38.277344 L 63.425781 28.625 C 63.425781 27.960938 63.964844 27.417969 64.621094 27.417969 L 92.113281 27.417969 C 92.769531 27.417969 93.308594 27.960938 93.308594 28.625 Z M 93.308594 38.277344 " fill-opacity="1" fill-rule="nonzero"/></g></svg>