<svg xmlns="http://www.w3.org/2000/svg" xmlns:xlink="http://www.w3.org/1999/xlink" width="128" zoomAndPan="magnify" viewBox="0 0 96 95.999999" height="128" preserveAspectRatio="xMidYMid meet" version="1.0"><defs><clipPath id="5b9f6ca0a7"><path d="M 3 2 L 72 2 L 72 94 L 3 94 Z M 3 2 " clip-rule="nonzero"/></clipPath><clipPath id="d01b4e1a5c"><path d="M -22.894531 29.300781 L 57.445312 -9.570312 L 91.417969 60.640625 L 11.074219 99.511719 Z M -22.894531 29.300781 " clip-rule="nonzero"/></clipPath><clipPath id="fcad8896f3"><path d="M -22.894531 29.300781 L 57.445312 -9.570312 L 91.417969 60.640625 L 11.074219 99.511719 Z M -22.894531 29.300781 " clip-rule="nonzero"/></clipPath><clipPath id="76d58ad008"><path d="M 19.199219 14.992188 L 95.699219 14.992188 L 95.699219 91.492188 L 19.199219 91.492188 Z M 19.199219 14.992188 " clip-rule="nonzero"/></clipPath></defs><rect x="-9.6" width="115.2" fill="#ffffff" y="-9.6" height="115.199999" fill-opacity="1"/><rect x="-9.6" width="115.2" fill="#ffffff" y="-9.6" height="115.199999" fill-opacity="1"/><g clip-path="url(#5b9f6ca0a7)"><g clip-path="url(#d01b4e1a5c)"><g clip-path="url(#fcad8896f3)"><path fill="#8ed5ff" d="M 38.554688 3.796875 C 22.03125 7.582031 9.441406 20.839844 5.710938 37.796875 C 3.207031 49.199219 2.800781 61.347656 3.433594 73.164062 C 3.769531 79.390625 4.703125 86.320312 9.402344 90.414062 C 13.40625 93.902344 19.277344 94.304688 24.117188 92.609375 C 28.953125 90.910156 32.9375 87.421875 36.539062 83.742188 C 45.394531 74.691406 52.621094 64.121094 59.800781 53.605469 C 63.679688 47.929688 67.601562 42.160156 69.785156 35.558594 C 71.972656 28.957031 72.230469 21.300781 68.90625 15.027344 C 64.148438 6.03125 53.105469 2.042969 43.355469 3.007812 C 41.730469 3.167969 40.132812 3.4375 38.554688 3.800781 Z M 38.554688 3.796875 " fill-opacity="1" fill-rule="nonzero"/></g></g></g><path fill="#000000" d="M 33.140625 47.554688 C 34.53125 48.945312 36.664062 46.835938 35.261719 45.429688 L 30.320312 40.492188 L 35.261719 35.554688 C 35.847656 34.96875 35.847656 34.015625 35.261719 33.429688 C 34.675781 32.847656 33.726562 32.847656 33.140625 33.429688 L 27.140625 39.429688 C 26.554688 40.015625 26.554688 40.96875 27.140625 41.554688 Z M 33.140625 47.554688 " fill-opacity="1" fill-rule="nonzero"/><path fill="#000000" d="M 50.261719 47.554688 L 56.261719 41.554688 C 56.847656 40.96875 56.847656 40.015625 56.261719 39.429688 L 50.261719 33.429688 C 49.675781 32.847656 48.726562 32.847656 48.140625 33.429688 C 47.554688 34.015625 47.554688 34.96875 48.140625 35.554688 L 53.078125 40.492188 L 48.140625 45.429688 C 46.734375 46.835938 48.871094 48.941406 50.261719 47.554688 Z M 50.261719 47.554688 " fill-opacity="1" fill-rule="nonzero"/><path fill="#000000" d="M 40.203125 47.992188 C 40.875 47.992188 41.484375 47.539062 41.65625 46.855469 L 44.65625 34.855469 C 44.855469 34.050781 44.367188 33.238281 43.5625 33.035156 C 42.761719 32.835938 41.945312 33.324219 41.746094 34.128906 L 38.746094 46.128906 C 38.507812 47.074219 39.222656 47.992188 40.203125 47.992188 Z M 40.203125 47.992188 " fill-opacity="1" fill-rule="nonzero"/><path fill="#000000" d="M 56.699219 56.992188 C 55.871094 56.992188 55.199219 57.664062 55.199219 58.492188 C 55.199219 59.320312 55.871094 59.992188 56.699219 59.992188 L 86.699219 59.992188 C 87.527344 59.992188 88.199219 59.320312 88.199219 58.492188 C 88.199219 57.664062 87.527344 56.992188 86.699219 56.992188 L 85.199219 56.992188 L 85.199219 44.992188 C 85.199219 44.164062 84.527344 43.492188 83.699219 43.492188 C 82.871094 43.492188 82.199219 44.164062 82.199219 44.992188 L 82.199219 56.992188 L 79.199219 56.992188 L 79.199219 41.992188 C 79.199219 41.164062 78.527344 40.492188 77.699219 40.492188 C 76.871094 40.492188 76.199219 41.164062 76.199219 41.992188 L 76.199219 56.992188 L 73.199219 56.992188 L 73.199219 50.992188 C 73.199219 50.164062 72.527344 49.492188 71.699219 49.492188 C 70.871094 49.492188 70.199219 50.164062 70.199219 50.992188 L 70.199219 56.992188 L 67.199219 56.992188 L 67.199219 47.992188 C 67.199219 47.164062 66.527344 46.492188 65.699219 46.492188 C 64.871094 46.492188 64.199219 47.164062 64.199219 47.992188 L 64.199219 56.992188 L 61.199219 56.992188 L 61.199219 52.492188 C 61.199219 51.664062 60.527344 50.992188 59.699219 50.992188 C 58.871094 50.992188 58.199219 51.664062 58.199219 52.492188 L 58.199219 56.992188 Z M 56.699219 56.992188 " fill-opacity="1" fill-rule="nonzero"/><path fill="#000000" d="M 59.699219 25.492188 L 86.699219 25.492188 C 87.527344 25.492188 88.199219 24.820312 88.199219 23.992188 C 88.199219 23.164062 87.527344 22.492188 86.699219 22.492188 L 59.699219 22.492188 C 58.871094 22.492188 58.199219 23.164062 58.199219 23.992188 C 58.199219 24.820312 58.871094 25.492188 59.699219 25.492188 Z M 59.699219 25.492188 " fill-opacity="1" fill-rule="nonzero"/><path fill="#000000" d="M 59.699219 31.492188 L 77.699219 31.492188 C 78.527344 31.492188 79.199219 30.820312 79.199219 29.992188 C 79.199219 29.164062 78.527344 28.492188 77.699219 28.492188 L 59.699219 28.492188 C 58.871094 28.492188 58.199219 29.164062 58.199219 29.992188 C 58.199219 30.820312 58.871094 31.492188 59.699219 31.492188 Z M 59.699219 31.492188 " fill-opacity="1" fill-rule="nonzero"/><path fill="#000000" d="M 88.199219 71.992188 C 88.199219 72.191406 88.160156 72.382812 88.085938 72.566406 C 88.007812 72.75 87.902344 72.914062 87.761719 73.054688 C 87.621094 73.195312 87.457031 73.300781 87.273438 73.378906 C 87.089844 73.453125 86.898438 73.492188 86.699219 73.492188 C 86.5 73.492188 86.308594 73.453125 86.125 73.378906 C 85.941406 73.300781 85.78125 73.195312 85.640625 73.054688 C 85.5 72.914062 85.390625 72.75 85.3125 72.566406 C 85.238281 72.382812 85.199219 72.191406 85.199219 71.992188 C 85.199219 71.792969 85.238281 71.601562 85.3125 71.417969 C 85.390625 71.234375 85.5 71.070312 85.640625 70.929688 C 85.78125 70.789062 85.941406 70.683594 86.125 70.605469 C 86.308594 70.53125 86.5 70.492188 86.699219 70.492188 C 86.898438 70.492188 87.089844 70.53125 87.273438 70.605469 C 87.457031 70.683594 87.621094 70.789062 87.761719 70.929688 C 87.902344 71.070312 88.007812 71.234375 88.085938 71.417969 C 88.160156 71.601562 88.199219 71.792969 88.199219 71.992188 Z M 88.199219 71.992188 " fill-opacity="1" fill-rule="nonzero"/><path fill="#000000" d="M 80.699219 70.492188 L 79.199219 70.492188 C 78.371094 70.492188 77.699219 71.164062 77.699219 71.992188 C 77.699219 72.820312 78.371094 73.492188 79.199219 73.492188 L 80.699219 73.492188 C 81.527344 73.492188 82.199219 72.820312 82.199219 71.992188 C 82.199219 71.164062 81.527344 70.492188 80.699219 70.492188 Z M 80.699219 70.492188 " fill-opacity="1" fill-rule="nonzero"/><path fill="#000000" d="M 73.199219 70.492188 L 71.699219 70.492188 C 70.871094 70.492188 70.199219 71.164062 70.199219 71.992188 C 70.199219 72.820312 70.871094 73.492188 71.699219 73.492188 L 73.199219 73.492188 C 74.027344 73.492188 74.699219 72.820312 74.699219 71.992188 C 74.699219 71.164062 74.027344 70.492188 73.199219 70.492188 Z M 73.199219 70.492188 " fill-opacity="1" fill-rule="nonzero"/><g clip-path="url(#76d58ad008)"><path fill="#000000" d="M 87.460938 14.992188 L 27.4375 14.992188 C 22.894531 14.992188 19.199219 18.6875 19.199219 23.230469 L 19.199219 71.253906 C 19.199219 75.796875 22.894531 79.492188 27.4375 79.492188 L 49.949219 79.492188 L 49.949219 82.492188 L 48.449219 82.492188 C 44.316406 82.492188 40.949219 85.855469 40.949219 89.992188 C 40.949219 90.820312 41.621094 91.492188 42.449219 91.492188 L 72.449219 91.492188 C 73.277344 91.492188 73.949219 90.820312 73.949219 89.992188 C 73.949219 85.855469 70.585938 82.492188 66.449219 82.492188 L 64.949219 82.492188 L 64.949219 79.492188 L 87.460938 79.492188 C 92.003906 79.492188 95.699219 75.796875 95.699219 71.253906 L 95.699219 23.230469 C 95.699219 18.6875 92.003906 14.992188 87.460938 14.992188 Z M 27.4375 17.992188 L 87.460938 17.992188 C 90.351562 17.992188 92.699219 20.34375 92.699219 23.230469 L 92.699219 64.492188 L 22.199219 64.492188 L 22.199219 23.230469 C 22.199219 20.34375 24.550781 17.992188 27.4375 17.992188 Z M 70.691406 88.492188 L 44.207031 88.492188 C 44.824219 86.746094 46.496094 85.492188 48.449219 85.492188 L 66.449219 85.492188 C 68.40625 85.492188 70.074219 86.746094 70.691406 88.492188 Z M 61.949219 82.492188 L 52.949219 82.492188 L 52.949219 79.492188 L 61.949219 79.492188 Z M 87.460938 76.492188 L 27.4375 76.492188 C 24.550781 76.492188 22.199219 74.140625 22.199219 71.253906 L 22.199219 67.492188 L 92.699219 67.492188 L 92.699219 71.253906 C 92.699219 74.140625 90.351562 76.492188 87.460938 76.492188 Z M 87.460938 76.492188 " fill-opacity="1" fill-rule="nonzero"/></g></svg>