<svg xmlns="http://www.w3.org/2000/svg" xmlns:xlink="http://www.w3.org/1999/xlink" width="128" zoomAndPan="magnify" viewBox="0 0 96 95.999999" height="128" preserveAspectRatio="xMidYMid meet" version="1.0"><defs><clipPath id="a426992483"><path d="M 3 2 L 72 2 L 72 94 L 3 94 Z M 3 2 " clip-rule="nonzero"/></clipPath><clipPath id="873bbe1942"><path d="M -22.894531 29.300781 L 57.445312 -9.570312 L 91.417969 60.640625 L 11.074219 99.511719 Z M -22.894531 29.300781 " clip-rule="nonzero"/></clipPath><clipPath id="53951e7ce3"><path d="M -22.894531 29.300781 L 57.445312 -9.570312 L 91.417969 60.640625 L 11.074219 99.511719 Z M -22.894531 29.300781 " clip-rule="nonzero"/></clipPath><clipPath id="4a554c9ee0"><path d="M 19.199219 19.199219 L 95.699219 19.199219 L 95.699219 95.699219 L 19.199219 95.699219 Z M 19.199219 19.199219 " clip-rule="nonzero"/></clipPath></defs><rect x="-9.6" width="115.2" fill="#ffffff" y="-9.6" height="115.199999" fill-opacity="1"/><rect x="-9.6" width="115.2" fill="#ffffff" y="-9.6" height="115.199999" fill-opacity="1"/><g clip-path="url(#a426992483)"><g clip-path="url(#873bbe1942)"><g clip-path="url(#53951e7ce3)"><path fill="#8ed5ff" d="M 38.554688 3.796875 C 22.03125 7.582031 9.441406 20.839844 5.710938 37.796875 C 3.207031 49.199219 2.800781 61.347656 3.433594 73.164062 C 3.769531 79.390625 4.703125 86.320312 9.402344 90.414062 C 13.40625 93.902344 19.277344 94.304688 24.117188 92.609375 C 28.953125 90.910156 32.9375 87.421875 36.539062 83.742188 C 45.394531 74.691406 52.621094 64.121094 59.800781 53.605469 C 63.679688 47.929688 67.601562 42.160156 69.785156 35.558594 C 71.972656 28.957031 72.230469 21.300781 68.90625 15.027344 C 64.148438 6.03125 53.105469 2.042969 43.355469 3.007812 C 41.730469 3.167969 40.132812 3.4375 38.554688 3.800781 Z M 38.554688 3.796875 " fill-opacity="1" fill-rule="nonzero"/></g></g></g><path fill="#000000" d="M 51.28125 75.957031 L 53.75 75.957031 L 53.75 73.492188 L 51.28125 73.492188 L 51.28125 75.957031 " fill-opacity="1" fill-rule="nonzero"/><path fill="#000000" d="M 56.214844 75.957031 L 58.683594 75.957031 L 58.683594 73.492188 L 56.214844 73.492188 L 56.214844 75.957031 " fill-opacity="1" fill-rule="nonzero"/><path fill="#000000" d="M 46.34375 75.957031 L 48.8125 75.957031 L 48.8125 73.492188 L 46.34375 73.492188 L 46.34375 75.957031 " fill-opacity="1" fill-rule="nonzero"/><path fill="#000000" d="M 53.75 63.621094 L 52.515625 63.621094 L 52.515625 62.386719 C 52.515625 58.929688 50.472656 55.949219 47.53125 54.566406 C 48.316406 53.695312 48.8125 52.546875 48.8125 51.28125 C 48.8125 48.558594 46.601562 46.34375 43.878906 46.34375 C 41.152344 46.34375 38.941406 48.558594 38.941406 51.28125 C 38.941406 52.546875 39.4375 53.695312 40.222656 54.566406 C 37.285156 55.949219 35.242188 58.929688 35.242188 62.386719 L 35.242188 63.621094 L 34.007812 63.621094 L 34.007812 43.878906 L 53.75 43.878906 Z M 43.878906 56.214844 C 47.28125 56.214844 50.046875 58.984375 50.046875 62.386719 L 50.046875 63.621094 L 37.707031 63.621094 L 37.707031 62.386719 C 37.707031 58.984375 40.476562 56.214844 43.878906 56.214844 Z M 41.410156 51.28125 C 41.410156 49.921875 42.519531 48.8125 43.878906 48.8125 C 45.238281 48.8125 46.34375 49.921875 46.34375 51.28125 C 46.34375 52.640625 45.238281 53.75 43.878906 53.75 C 42.519531 53.75 41.410156 52.640625 41.410156 51.28125 Z M 26.601562 58.683594 L 26.601562 38.941406 L 46.34375 38.941406 L 46.34375 41.410156 L 31.539062 41.410156 L 31.539062 58.683594 Z M 48.8125 36.472656 L 24.136719 36.472656 L 24.136719 61.152344 L 31.539062 61.152344 L 31.539062 66.085938 L 56.214844 66.085938 L 56.214844 41.410156 L 48.8125 41.410156 L 48.8125 36.472656 " fill-opacity="1" fill-rule="nonzero"/><g clip-path="url(#4a554c9ee0)"><path fill="#000000" d="M 82.222656 52.929688 C 83.171875 51.523438 83.964844 49.699219 84.566406 47.578125 L 89.808594 47.578125 C 87.878906 50.039062 85.25 51.921875 82.222656 52.929688 Z M 83.359375 68.554688 L 21.667969 68.554688 L 21.667969 35.242188 C 21.667969 34.5625 22.222656 34.007812 22.902344 34.007812 L 59.054688 34.007812 C 58.8125 35.203125 58.683594 36.441406 58.683594 37.707031 C 58.683594 47.917969 66.984375 56.214844 77.191406 56.214844 C 79.355469 56.214844 81.429688 55.820312 83.359375 55.136719 Z M 82.128906 78.425781 L 22.902344 78.425781 C 22.222656 78.425781 21.667969 77.871094 21.667969 77.191406 L 21.667969 71.023438 L 83.359375 71.023438 L 83.359375 77.191406 C 83.359375 77.871094 82.808594 78.425781 82.128906 78.425781 Z M 60.804688 88.296875 L 44.222656 88.296875 L 46.074219 80.894531 L 58.953125 80.894531 Z M 72.257812 92 L 72.257812 93.230469 L 32.773438 93.230469 L 32.773438 92 C 32.773438 91.320312 33.328125 90.765625 34.007812 90.765625 L 71.023438 90.765625 C 71.703125 90.765625 72.257812 91.320312 72.257812 92 Z M 72.160156 22.488281 C 71.210938 23.894531 70.421875 25.714844 69.816406 27.835938 L 64.574219 27.835938 C 66.507812 25.378906 69.132812 23.496094 72.160156 22.488281 Z M 89.808594 27.835938 L 84.566406 27.835938 C 83.964844 25.714844 83.171875 23.894531 82.222656 22.488281 C 85.25 23.496094 87.878906 25.378906 89.808594 27.835938 Z M 85.800781 38.941406 L 93.167969 38.941406 C 93 41.152344 92.390625 43.242188 91.40625 45.109375 L 85.160156 45.109375 C 85.523438 43.21875 85.738281 41.140625 85.800781 38.941406 Z M 71.761719 45.109375 C 71.375 43.273438 71.117188 41.203125 71.050781 38.941406 L 83.332031 38.941406 C 83.265625 41.203125 83.015625 43.273438 82.625 45.109375 Z M 69.816406 47.578125 C 70.421875 49.699219 71.210938 51.523438 72.160156 52.929688 C 69.132812 51.921875 66.507812 50.039062 64.574219 47.578125 Z M 68.582031 38.941406 C 68.644531 41.140625 68.859375 43.21875 69.226562 45.109375 L 62.976562 45.109375 C 61.996094 43.242188 61.382812 41.152344 61.214844 38.941406 Z M 68.582031 36.472656 L 61.214844 36.472656 C 61.382812 34.261719 61.996094 32.175781 62.976562 30.304688 L 69.226562 30.304688 C 68.859375 32.199219 68.644531 34.277344 68.582031 36.472656 Z M 93.167969 36.472656 L 85.800781 36.472656 C 85.738281 34.277344 85.523438 32.199219 85.160156 30.304688 L 91.40625 30.304688 C 92.390625 32.175781 93 34.261719 93.167969 36.472656 Z M 82.625 30.304688 C 83.015625 32.140625 83.265625 34.214844 83.332031 36.472656 L 71.050781 36.472656 C 71.117188 34.214844 71.375 32.140625 71.761719 30.304688 Z M 77.191406 21.667969 C 78.921875 21.667969 80.757812 23.992188 81.976562 27.835938 L 72.40625 27.835938 C 73.625 23.992188 75.460938 21.667969 77.191406 21.667969 Z M 77.191406 53.75 C 75.460938 53.75 73.625 51.425781 72.40625 47.578125 L 81.976562 47.578125 C 80.757812 51.425781 78.921875 53.75 77.191406 53.75 Z M 95.699219 37.707031 C 95.699219 27.5 87.398438 19.199219 77.191406 19.199219 C 69.152344 19.199219 62.3125 24.363281 59.761719 31.539062 L 22.902344 31.539062 C 20.859375 31.539062 19.199219 33.195312 19.199219 35.242188 L 19.199219 77.191406 C 19.199219 79.234375 20.859375 80.894531 22.902344 80.894531 L 43.53125 80.894531 L 41.679688 88.296875 L 34.007812 88.296875 C 31.960938 88.296875 30.304688 89.953125 30.304688 92 L 30.304688 95.699219 L 74.722656 95.699219 L 74.722656 92 C 74.722656 89.953125 73.066406 88.296875 71.023438 88.296875 L 63.347656 88.296875 L 61.5 80.894531 L 82.128906 80.894531 C 84.171875 80.894531 85.828125 79.234375 85.828125 77.191406 L 85.828125 54.066406 C 91.695312 50.957031 95.699219 44.792969 95.699219 37.707031 " fill-opacity="1" fill-rule="nonzero"/></g><path fill="#000000" d="M 58.683594 61.152344 L 80.894531 61.152344 L 80.894531 58.683594 L 58.683594 58.683594 L 58.683594 61.152344 " fill-opacity="1" fill-rule="nonzero"/><path fill="#000000" d="M 78.425781 66.085938 L 80.894531 66.085938 L 80.894531 63.621094 L 78.425781 63.621094 L 78.425781 66.085938 " fill-opacity="1" fill-rule="nonzero"/><path fill="#000000" d="M 58.683594 66.085938 L 75.957031 66.085938 L 75.957031 63.621094 L 58.683594 63.621094 L 58.683594 66.085938 " fill-opacity="1" fill-rule="nonzero"/></svg>