<svg xmlns="http://www.w3.org/2000/svg" xmlns:xlink="http://www.w3.org/1999/xlink" width="128" zoomAndPan="magnify" viewBox="0 0 96 95.999999" height="128" preserveAspectRatio="xMidYMid meet" version="1.0"><defs><clipPath id="3052f0c416"><path d="M 3 2 L 72 2 L 72 94 L 3 94 Z M 3 2 " clip-rule="nonzero"/></clipPath><clipPath id="c7d1de2214"><path d="M -22.894531 29.300781 L 57.445312 -9.570312 L 91.417969 60.640625 L 11.074219 99.511719 Z M -22.894531 29.300781 " clip-rule="nonzero"/></clipPath><clipPath id="b7d02581ec"><path d="M -22.894531 29.300781 L 57.445312 -9.570312 L 91.417969 60.640625 L 11.074219 99.511719 Z M -22.894531 29.300781 " clip-rule="nonzero"/></clipPath><clipPath id="6c71ec120f"><path d="M 19.199219 40 L 46 40 L 46 68 L 19.199219 68 Z M 19.199219 40 " clip-rule="nonzero"/></clipPath><clipPath id="6e6a74d162"><path d="M 71 40 L 95.699219 40 L 95.699219 68 L 71 68 Z M 71 40 " clip-rule="nonzero"/></clipPath><clipPath id="2b49e516f0"><path d="M 31 46 L 83 46 L 83 91.492188 L 31 91.492188 Z M 31 46 " clip-rule="nonzero"/></clipPath></defs><rect x="-9.6" width="115.2" fill="#ffffff" y="-9.6" height="115.199999" fill-opacity="1"/><rect x="-9.6" width="115.2" fill="#ffffff" y="-9.6" height="115.199999" fill-opacity="1"/><g clip-path="url(#3052f0c416)"><g clip-path="url(#c7d1de2214)"><g clip-path="url(#b7d02581ec)"><path fill="#8ed5ff" d="M 38.554688 3.796875 C 22.03125 7.582031 9.441406 20.839844 5.710938 37.796875 C 3.207031 49.199219 2.800781 61.347656 3.433594 73.164062 C 3.769531 79.390625 4.703125 86.320312 9.402344 90.414062 C 13.40625 93.902344 19.277344 94.304688 24.117188 92.609375 C 28.953125 90.910156 32.9375 87.421875 36.539062 83.742188 C 45.394531 74.691406 52.621094 64.121094 59.800781 53.605469 C 63.679688 47.929688 67.601562 42.160156 69.785156 35.558594 C 71.972656 28.957031 72.230469 21.300781 68.90625 15.027344 C 64.148438 6.03125 53.105469 2.042969 43.355469 3.007812 C 41.730469 3.167969 40.132812 3.4375 38.554688 3.800781 Z M 38.554688 3.796875 " fill-opacity="1" fill-rule="nonzero"/></g></g></g><path fill="#000000" d="M 49.441406 34.386719 C 49.441406 34.386719 49.5 34.445312 49.5 34.445312 C 51.53125 36.476562 54.34375 37.734375 57.449219 37.734375 C 60.558594 37.734375 63.367188 36.476562 65.398438 34.445312 C 65.398438 34.445312 65.457031 34.386719 65.457031 34.386719 C 65.457031 34.386719 65.519531 34.328125 65.519531 34.328125 C 67.550781 32.292969 68.804688 29.484375 68.804688 26.378906 C 68.804688 23.269531 67.550781 20.460938 65.519531 18.429688 C 65.519531 18.429688 65.457031 18.367188 65.457031 18.367188 C 65.457031 18.367188 65.398438 18.308594 65.398438 18.308594 C 63.367188 16.277344 60.558594 15.023438 57.449219 15.023438 C 54.34375 15.023438 51.53125 16.277344 49.5 18.308594 C 49.5 18.308594 49.441406 18.367188 49.441406 18.367188 C 49.441406 18.367188 49.382812 18.429688 49.382812 18.429688 C 47.347656 20.460938 46.09375 23.269531 46.09375 26.378906 C 46.09375 29.484375 47.347656 32.292969 49.382812 34.328125 C 49.382812 34.328125 49.382812 34.386719 49.441406 34.386719 Z M 49.679688 25.183594 L 48.542969 25.183594 C 48.785156 23.628906 49.382812 22.132812 50.277344 20.9375 L 51.054688 21.714844 C 51.292969 21.953125 51.59375 22.074219 51.890625 22.074219 C 52.191406 22.074219 52.488281 21.953125 52.726562 21.714844 C 53.207031 21.238281 53.207031 20.519531 52.726562 20.042969 L 51.953125 19.265625 C 53.148438 18.367188 54.582031 17.710938 56.195312 17.53125 L 56.195312 18.609375 C 56.195312 19.265625 56.734375 19.804688 57.390625 19.804688 C 58.046875 19.804688 58.585938 19.265625 58.585938 18.609375 L 58.585938 17.472656 C 60.140625 17.710938 61.632812 18.308594 62.828125 19.207031 L 62.050781 19.984375 C 61.574219 20.460938 61.574219 21.179688 62.050781 21.65625 C 62.289062 21.894531 62.589844 22.015625 62.886719 22.015625 C 63.1875 22.015625 63.484375 21.894531 63.726562 21.65625 L 64.503906 20.878906 C 65.398438 22.074219 66.054688 23.507812 66.234375 25.121094 L 65.21875 25.121094 C 64.5625 25.121094 64.023438 25.660156 64.023438 26.316406 C 64.023438 26.976562 64.5625 27.511719 65.21875 27.511719 L 66.355469 27.511719 C 66.117188 29.066406 65.519531 30.5625 64.621094 31.757812 L 63.84375 30.980469 C 63.367188 30.5 62.648438 30.5 62.171875 30.980469 C 61.691406 31.457031 61.691406 32.175781 62.171875 32.652344 L 62.949219 33.429688 C 61.753906 34.328125 60.320312 34.984375 58.703125 35.164062 L 58.703125 34.148438 C 58.703125 33.488281 58.167969 32.953125 57.507812 32.953125 C 56.851562 32.953125 56.3125 33.488281 56.3125 34.148438 L 56.3125 35.28125 C 54.761719 35.042969 53.265625 34.445312 52.070312 33.550781 L 52.847656 32.773438 C 53.324219 32.292969 53.324219 31.578125 52.847656 31.097656 C 52.371094 30.621094 51.652344 30.621094 51.175781 31.097656 L 50.398438 31.875 C 49.5 30.679688 48.84375 29.246094 48.664062 27.632812 L 49.679688 27.632812 C 50.335938 27.632812 50.875 27.09375 50.875 26.4375 C 50.875 25.78125 50.335938 25.183594 49.679688 25.183594 Z M 49.679688 25.183594 " fill-opacity="1" fill-rule="nonzero"/><path fill="#000000" d="M 54.460938 27.574219 L 57.449219 27.574219 C 58.105469 27.574219 58.644531 27.035156 58.644531 26.378906 L 58.644531 22.792969 C 58.644531 22.132812 58.105469 21.597656 57.449219 21.597656 C 56.792969 21.597656 56.253906 22.132812 56.253906 22.792969 L 56.253906 25.183594 L 54.460938 25.183594 C 53.804688 25.183594 53.265625 25.71875 53.265625 26.378906 C 53.265625 27.035156 53.804688 27.574219 54.460938 27.574219 Z M 54.460938 27.574219 " fill-opacity="1" fill-rule="nonzero"/><g clip-path="url(#6c71ec120f)"><path fill="#000000" d="M 20.875 57.394531 C 21.113281 58.113281 21.410156 58.832031 21.769531 59.546875 C 21.410156 60.5625 21.589844 61.757812 22.425781 62.535156 L 23.742188 63.851562 C 24.28125 64.386719 24.996094 64.6875 25.773438 64.6875 C 26.132812 64.6875 26.429688 64.628906 26.789062 64.507812 C 27.449219 64.867188 28.164062 65.164062 28.941406 65.40625 C 29.417969 66.359375 30.375 67.078125 31.511719 67.078125 L 33.363281 67.078125 C 34.5 67.078125 35.515625 66.421875 35.933594 65.40625 C 36.652344 65.164062 37.367188 64.867188 38.085938 64.507812 C 38.382812 64.628906 38.742188 64.6875 39.101562 64.6875 C 39.878906 64.6875 40.597656 64.386719 41.132812 63.851562 L 42.449219 62.535156 C 43.285156 61.699219 43.464844 60.5625 43.105469 59.546875 C 43.464844 58.890625 43.761719 58.171875 44.003906 57.394531 C 44.957031 56.917969 45.675781 55.960938 45.675781 54.824219 L 45.675781 52.972656 C 45.675781 51.835938 45.019531 50.820312 44.003906 50.402344 C 43.761719 49.6875 43.464844 48.96875 43.105469 48.25 C 43.226562 47.953125 43.285156 47.59375 43.285156 47.234375 C 43.285156 46.457031 42.988281 45.742188 42.449219 45.203125 L 41.132812 43.890625 C 40.597656 43.351562 39.878906 43.050781 39.101562 43.050781 C 38.742188 43.050781 38.445312 43.113281 38.085938 43.230469 C 37.429688 42.871094 36.710938 42.574219 35.933594 42.335938 C 35.457031 41.378906 34.5 40.660156 33.363281 40.660156 L 31.511719 40.660156 C 30.375 40.660156 29.359375 41.320312 28.941406 42.335938 C 28.222656 42.574219 27.507812 42.871094 26.789062 43.230469 C 26.371094 43.171875 26.074219 43.113281 25.714844 43.113281 C 24.9375 43.113281 24.21875 43.410156 23.683594 43.949219 L 22.367188 45.261719 C 21.890625 45.742188 21.589844 46.457031 21.589844 47.234375 C 21.589844 47.59375 21.648438 47.894531 21.769531 48.25 C 21.410156 48.910156 21.113281 49.625 20.875 50.402344 C 19.855469 50.820312 19.199219 51.777344 19.199219 52.972656 L 19.199219 54.824219 C 19.199219 55.960938 19.855469 56.917969 20.875 57.394531 Z M 21.589844 52.972656 C 21.589844 52.734375 21.769531 52.496094 22.070312 52.496094 L 22.84375 52.496094 C 23.085938 50.882812 23.742188 49.386719 24.636719 48.132812 L 24.101562 47.59375 C 23.921875 47.414062 23.921875 47.117188 24.101562 46.9375 L 25.414062 45.621094 C 25.476562 45.5625 25.59375 45.503906 25.714844 45.503906 C 25.832031 45.503906 25.953125 45.5625 26.011719 45.621094 L 26.550781 46.160156 C 27.804688 45.203125 29.300781 44.605469 30.914062 44.367188 L 30.914062 43.589844 C 30.914062 43.351562 31.09375 43.113281 31.390625 43.113281 L 33.246094 43.113281 C 33.484375 43.113281 33.722656 43.292969 33.722656 43.589844 L 33.722656 44.367188 C 35.335938 44.605469 36.832031 45.261719 38.085938 46.160156 L 38.625 45.621094 C 38.683594 45.5625 38.804688 45.503906 38.921875 45.503906 C 39.042969 45.503906 39.160156 45.5625 39.222656 45.621094 L 40.535156 46.9375 C 40.714844 47.117188 40.714844 47.414062 40.535156 47.59375 L 40 48.132812 C 40.953125 49.386719 41.550781 50.882812 41.792969 52.496094 L 42.566406 52.496094 C 42.808594 52.496094 43.046875 52.675781 43.046875 52.972656 L 43.046875 54.824219 C 43.046875 55.066406 42.867188 55.304688 42.566406 55.304688 L 41.792969 55.304688 C 41.550781 56.917969 40.894531 58.410156 40 59.667969 L 40.535156 60.203125 C 40.714844 60.382812 40.714844 60.683594 40.535156 60.863281 L 39.222656 62.175781 C 39.222656 62.238281 39.101562 62.238281 38.980469 62.238281 C 38.863281 62.238281 38.742188 62.175781 38.683594 62.117188 L 38.144531 61.578125 C 36.890625 62.535156 35.394531 63.132812 33.78125 63.371094 L 33.78125 64.148438 C 33.78125 64.386719 33.601562 64.628906 33.304688 64.628906 L 31.453125 64.628906 C 31.210938 64.628906 30.972656 64.449219 30.972656 64.148438 L 30.972656 63.371094 C 29.359375 63.132812 27.867188 62.476562 26.609375 61.578125 L 26.074219 62.117188 C 25.953125 62.238281 25.832031 62.238281 25.714844 62.238281 C 25.59375 62.238281 25.476562 62.175781 25.414062 62.117188 L 24.101562 60.800781 C 23.921875 60.625 23.921875 60.324219 24.101562 60.144531 L 24.636719 59.605469 C 23.683594 58.351562 23.085938 56.859375 22.84375 55.246094 L 22.070312 55.246094 C 21.769531 55.246094 21.589844 55.066406 21.589844 54.765625 Z M 21.589844 52.972656 " fill-opacity="1" fill-rule="nonzero"/></g><path fill="#000000" d="M 32.347656 61.042969 C 36.292969 61.042969 39.519531 57.8125 39.519531 53.871094 C 39.519531 49.925781 36.292969 46.699219 32.347656 46.699219 C 28.402344 46.699219 25.175781 49.925781 25.175781 53.871094 C 25.175781 57.8125 28.402344 61.042969 32.347656 61.042969 Z M 32.347656 49.089844 C 34.976562 49.089844 37.128906 51.238281 37.128906 53.871094 C 37.128906 56.5 34.976562 58.652344 32.347656 58.652344 C 29.71875 58.652344 27.566406 56.5 27.566406 53.871094 C 27.566406 51.238281 29.71875 49.089844 32.347656 49.089844 Z M 32.347656 49.089844 " fill-opacity="1" fill-rule="nonzero"/><path fill="#000000" d="M 80.816406 37.734375 L 83.628906 37.734375 C 80.640625 32.773438 76.335938 28.707031 71.136719 26.078125 C 71.136719 26.199219 71.136719 26.257812 71.136719 26.378906 C 71.136719 27.15625 71.078125 27.929688 70.957031 28.648438 C 74.960938 30.859375 78.367188 33.96875 80.816406 37.734375 Z M 80.816406 37.734375 " fill-opacity="1" fill-rule="nonzero"/><g clip-path="url(#6e6a74d162)"><path fill="#000000" d="M 92.113281 42.515625 L 89.664062 42.515625 C 89.363281 41.140625 88.167969 40.125 86.734375 40.125 L 80.757812 40.125 C 79.324219 40.125 78.128906 41.140625 77.828125 42.515625 L 75.378906 42.515625 C 73.40625 42.515625 71.792969 44.128906 71.792969 46.101562 L 71.792969 64.03125 C 71.792969 66.003906 73.40625 67.617188 75.378906 67.617188 L 92.113281 67.617188 C 94.085938 67.617188 95.699219 66.003906 95.699219 64.03125 L 95.699219 46.101562 C 95.699219 44.128906 94.085938 42.515625 92.113281 42.515625 Z M 80.160156 43.113281 C 80.160156 42.753906 80.398438 42.515625 80.757812 42.515625 L 86.734375 42.515625 C 87.09375 42.515625 87.332031 42.753906 87.332031 43.113281 L 87.332031 44.308594 C 87.332031 44.664062 87.09375 44.90625 86.734375 44.90625 L 80.757812 44.90625 C 80.398438 44.90625 80.160156 44.664062 80.160156 44.308594 Z M 93.308594 64.03125 C 93.308594 64.6875 92.769531 65.226562 92.113281 65.226562 L 75.378906 65.226562 C 74.722656 65.226562 74.183594 64.6875 74.183594 64.03125 L 74.183594 46.101562 C 74.183594 45.441406 74.722656 44.90625 75.378906 44.90625 L 77.828125 44.90625 C 78.128906 46.28125 79.324219 47.296875 80.757812 47.296875 L 86.734375 47.296875 C 88.167969 47.296875 89.363281 46.28125 89.664062 44.90625 L 92.113281 44.90625 C 92.769531 44.90625 93.308594 45.441406 93.308594 46.101562 Z M 93.308594 64.03125 " fill-opacity="1" fill-rule="nonzero"/></g><path fill="#000000" d="M 88.527344 49.6875 L 78.964844 49.6875 C 78.308594 49.6875 77.769531 50.222656 77.769531 50.882812 C 77.769531 51.539062 78.308594 52.078125 78.964844 52.078125 L 88.527344 52.078125 C 89.183594 52.078125 89.722656 51.539062 89.722656 50.882812 C 89.722656 50.222656 89.183594 49.6875 88.527344 49.6875 Z M 88.527344 49.6875 " fill-opacity="1" fill-rule="nonzero"/><path fill="#000000" d="M 88.527344 54.46875 L 78.964844 54.46875 C 78.308594 54.46875 77.769531 55.003906 77.769531 55.664062 C 77.769531 56.320312 78.308594 56.859375 78.964844 56.859375 L 88.527344 56.859375 C 89.183594 56.859375 89.722656 56.320312 89.722656 55.664062 C 89.722656 55.003906 89.183594 54.46875 88.527344 54.46875 Z M 88.527344 54.46875 " fill-opacity="1" fill-rule="nonzero"/><path fill="#000000" d="M 88.527344 59.25 L 78.964844 59.25 C 78.308594 59.25 77.769531 59.785156 77.769531 60.445312 C 77.769531 61.101562 78.308594 61.640625 78.964844 61.640625 L 88.527344 61.640625 C 89.183594 61.640625 89.722656 61.101562 89.722656 60.445312 C 89.722656 59.785156 89.183594 59.25 88.527344 59.25 Z M 88.527344 59.25 " fill-opacity="1" fill-rule="nonzero"/><path fill="#000000" d="M 33.246094 38.332031 C 33.363281 38.332031 33.484375 38.332031 33.601562 38.332031 C 36.113281 34.328125 39.640625 30.980469 43.824219 28.648438 C 43.761719 27.929688 43.703125 27.15625 43.703125 26.378906 C 43.703125 26.257812 43.703125 26.199219 43.703125 26.078125 C 38.324219 28.828125 33.84375 33.132812 30.855469 38.390625 C 31.035156 38.390625 31.210938 38.332031 31.390625 38.332031 Z M 33.246094 38.332031 " fill-opacity="1" fill-rule="nonzero"/><g clip-path="url(#2b49e516f0)"><path fill="#000000" d="M 82.910156 70.007812 L 80.042969 70.007812 C 78.128906 72.636719 75.738281 74.847656 72.988281 76.699219 C 71.316406 75.984375 69.582031 75.207031 68.265625 74.667969 C 67.492188 74.308594 66.894531 74.070312 66.472656 73.890625 L 65.457031 70.605469 C 67.910156 67.496094 69.402344 63.132812 69.402344 59.128906 C 69.402344 51.957031 64.324219 46.101562 58.046875 46.101562 C 51.773438 46.101562 46.691406 51.957031 46.691406 59.128906 C 46.691406 63.132812 48.1875 67.496094 50.636719 70.605469 L 49.621094 73.832031 C 49.261719 74.011719 48.605469 74.25 47.828125 74.609375 C 46.332031 75.265625 44.300781 76.164062 42.390625 76.9375 C 39.222656 74.90625 36.472656 72.335938 34.378906 69.230469 C 34.023438 69.289062 33.664062 69.347656 33.246094 69.347656 L 31.570312 69.347656 C 33.722656 72.753906 36.472656 75.683594 39.757812 78.015625 C 38.324219 78.613281 37.25 79.089844 37.070312 79.152344 C 36.710938 79.269531 36.414062 79.570312 36.351562 79.925781 L 33.542969 89.910156 C 33.425781 90.265625 33.542969 90.683594 33.722656 90.984375 C 33.902344 91.28125 34.320312 91.460938 34.679688 91.460938 L 81.296875 91.460938 C 81.65625 91.460938 82.011719 91.28125 82.253906 90.984375 C 82.492188 90.683594 82.550781 90.328125 82.433594 89.910156 L 79.621094 79.925781 C 79.503906 79.570312 79.265625 79.269531 78.90625 79.152344 C 78.726562 79.089844 77.292969 78.492188 75.5 77.65625 C 78.425781 75.625 80.9375 72.996094 82.910156 70.007812 Z M 49.082031 59.128906 C 49.082031 53.273438 53.085938 48.492188 58.046875 48.492188 C 63.007812 48.492188 67.011719 53.273438 67.011719 59.128906 C 67.011719 64.984375 63.007812 72.398438 58.046875 72.398438 C 53.085938 72.398438 49.082031 65.046875 49.082031 59.128906 Z M 77.53125 81.242188 L 79.742188 89.132812 L 36.292969 89.132812 L 38.503906 81.242188 C 39.578125 80.765625 42.210938 79.6875 48.722656 76.820312 C 51.113281 75.804688 51.113281 75.742188 51.292969 75.683594 C 51.472656 75.503906 51.652344 75.324219 51.710938 75.085938 L 52.488281 72.578125 C 54.101562 73.949219 56.015625 74.789062 57.988281 74.789062 C 59.960938 74.789062 61.871094 73.949219 63.484375 72.578125 L 64.261719 75.085938 C 64.324219 75.324219 64.503906 75.566406 64.679688 75.683594 C 64.800781 75.804688 64.859375 75.804688 67.191406 76.820312 C 73.824219 79.628906 76.457031 80.765625 77.53125 81.242188 Z M 77.53125 81.242188 " fill-opacity="1" fill-rule="nonzero"/></g></svg>