<svg xmlns="http://www.w3.org/2000/svg" xmlns:xlink="http://www.w3.org/1999/xlink" width="128" zoomAndPan="magnify" viewBox="0 0 96 95.999999" height="128" preserveAspectRatio="xMidYMid meet" version="1.0"><defs><clipPath id="226446e510"><path d="M 3 2 L 72 2 L 72 94 L 3 94 Z M 3 2 " clip-rule="nonzero"/></clipPath><clipPath id="55716eb3dc"><path d="M -22.894531 29.300781 L 57.445312 -9.570312 L 91.417969 60.640625 L 11.074219 99.511719 Z M -22.894531 29.300781 " clip-rule="nonzero"/></clipPath><clipPath id="f38457d454"><path d="M -22.894531 29.300781 L 57.445312 -9.570312 L 91.417969 60.640625 L 11.074219 99.511719 Z M -22.894531 29.300781 " clip-rule="nonzero"/></clipPath><clipPath id="aa7e8e0730"><path d="M 19.199219 80 L 95.699219 80 L 95.699219 83.289062 L 19.199219 83.289062 Z M 19.199219 80 " clip-rule="nonzero"/></clipPath><clipPath id="b6d5db927e"><path d="M 25 67 L 37 67 L 37 83.289062 L 25 83.289062 Z M 25 67 " clip-rule="nonzero"/></clipPath><clipPath id="d4f10f3bef"><path d="M 43 54 L 55 54 L 55 83.289062 L 43 83.289062 Z M 43 54 " clip-rule="nonzero"/></clipPath><clipPath id="ac164b661d"><path d="M 60 58 L 72 58 L 72 83.289062 L 60 83.289062 Z M 60 58 " clip-rule="nonzero"/></clipPath><clipPath id="cee6deeb62"><path d="M 77 44 L 90 44 L 90 83.289062 L 77 83.289062 Z M 77 44 " clip-rule="nonzero"/></clipPath><clipPath id="6208793b17"><path d="M 78 24.789062 L 89 24.789062 L 89 35 L 78 35 Z M 78 24.789062 " clip-rule="nonzero"/></clipPath></defs><rect x="-9.6" width="115.2" fill="#ffffff" y="-9.6" height="115.199999" fill-opacity="1"/><rect x="-9.6" width="115.2" fill="#ffffff" y="-9.6" height="115.199999" fill-opacity="1"/><g clip-path="url(#226446e510)"><g clip-path="url(#55716eb3dc)"><g clip-path="url(#f38457d454)"><path fill="#8ed5ff" d="M 38.554688 3.796875 C 22.03125 7.582031 9.441406 20.839844 5.710938 37.796875 C 3.207031 49.199219 2.800781 61.347656 3.433594 73.164062 C 3.769531 79.390625 4.703125 86.320312 9.402344 90.414062 C 13.40625 93.902344 19.277344 94.304688 24.117188 92.609375 C 28.953125 90.910156 32.9375 87.421875 36.539062 83.742188 C 45.394531 74.691406 52.621094 64.121094 59.800781 53.605469 C 63.679688 47.929688 67.601562 42.160156 69.785156 35.558594 C 71.972656 28.957031 72.230469 21.300781 68.90625 15.027344 C 64.148438 6.03125 53.105469 2.042969 43.355469 3.007812 C 41.730469 3.167969 40.132812 3.4375 38.554688 3.800781 Z M 38.554688 3.796875 " fill-opacity="1" fill-rule="nonzero"/></g></g></g><g clip-path="url(#aa7e8e0730)"><path fill="#000000" d="M 94.578125 83.183594 L 20.320312 83.183594 C 19.691406 83.183594 19.199219 82.6875 19.199219 82.058594 C 19.199219 81.429688 19.691406 80.9375 20.320312 80.9375 L 94.578125 80.9375 C 95.207031 80.9375 95.699219 81.429688 95.699219 82.058594 C 95.699219 82.6875 95.207031 83.183594 94.578125 83.183594 Z M 94.578125 83.183594 " fill-opacity="1" fill-rule="evenodd"/></g><g clip-path="url(#b6d5db927e)"><path fill="#000000" d="M 35.78125 83.183594 C 35.15625 83.183594 34.660156 82.6875 34.660156 82.058594 L 34.660156 69.925781 L 28.027344 69.925781 L 28.027344 82.148438 C 28.027344 82.734375 27.535156 83.273438 26.910156 83.273438 C 26.28125 83.273438 25.789062 82.734375 25.789062 82.148438 L 25.789062 68.800781 C 25.789062 68.171875 26.28125 67.679688 26.910156 67.679688 L 35.78125 67.679688 C 36.410156 67.679688 36.902344 68.171875 36.902344 68.800781 L 36.902344 82.058594 C 36.855469 82.6875 36.363281 83.183594 35.78125 83.183594 Z M 35.78125 83.183594 " fill-opacity="1" fill-rule="evenodd"/></g><g clip-path="url(#d4f10f3bef)"><path fill="#000000" d="M 53.171875 83.183594 C 52.542969 83.183594 52.050781 82.6875 52.050781 82.058594 L 52.050781 56.398438 L 45.417969 56.398438 L 45.417969 82.058594 C 45.417969 82.6875 44.925781 83.183594 44.296875 83.183594 C 43.667969 83.183594 43.175781 82.6875 43.175781 82.058594 L 43.175781 55.320312 C 43.175781 54.734375 43.667969 54.195312 44.296875 54.195312 L 53.171875 54.195312 C 53.796875 54.195312 54.289062 54.734375 54.289062 55.320312 L 54.289062 82.148438 C 54.289062 82.6875 53.796875 83.183594 53.171875 83.183594 Z M 53.171875 83.183594 " fill-opacity="1" fill-rule="evenodd"/></g><g clip-path="url(#ac164b661d)"><path fill="#000000" d="M 70.601562 83.183594 C 69.976562 83.183594 69.484375 82.6875 69.484375 82.058594 L 69.484375 60.757812 L 62.804688 60.757812 L 62.804688 82.058594 C 62.804688 82.6875 62.3125 83.183594 61.683594 83.183594 C 61.058594 83.183594 60.566406 82.6875 60.566406 82.058594 L 60.566406 59.632812 C 60.566406 59.003906 61.058594 58.511719 61.683594 58.511719 L 70.601562 58.511719 C 71.1875 58.511719 71.722656 59.003906 71.722656 59.632812 L 71.722656 82.058594 C 71.722656 82.6875 71.1875 83.183594 70.601562 83.183594 Z M 70.601562 83.183594 " fill-opacity="1" fill-rule="evenodd"/></g><g clip-path="url(#cee6deeb62)"><path fill="#000000" d="M 87.992188 83.183594 C 87.363281 83.183594 86.871094 82.6875 86.871094 82.058594 L 86.871094 46.421875 L 80.148438 46.421875 L 80.148438 82.148438 C 80.148438 82.734375 79.65625 83.273438 79.027344 83.273438 C 78.402344 83.273438 77.910156 82.734375 77.910156 82.148438 L 77.910156 45.386719 C 77.910156 44.757812 78.402344 44.261719 79.027344 44.261719 L 87.902344 44.261719 C 88.53125 44.261719 89.023438 44.757812 89.023438 45.386719 L 89.023438 82.148438 C 89.113281 82.6875 88.621094 83.183594 87.992188 83.183594 Z M 87.992188 83.183594 " fill-opacity="1" fill-rule="evenodd"/></g><path fill="#000000" d="M 34.125 51.859375 C 33.808594 51.859375 33.496094 51.722656 33.226562 51.410156 C 32.867188 50.914062 33.003906 50.242188 33.40625 49.835938 L 45.28125 40.625 C 45.777344 40.265625 46.492188 40.398438 46.851562 40.804688 C 47.210938 41.34375 47.074219 42.015625 46.671875 42.375 L 34.796875 51.589844 C 34.617188 51.769531 34.347656 51.859375 34.125 51.859375 Z M 62.804688 43.992188 C 62.761719 43.992188 62.625 43.992188 62.582031 43.949219 L 51.960938 41.34375 C 51.378906 41.207031 51.019531 40.578125 51.152344 39.996094 C 51.242188 39.453125 51.871094 39.09375 52.453125 39.183594 L 63.074219 41.835938 C 63.613281 41.925781 64.015625 42.554688 63.882812 43.140625 C 63.703125 43.632812 63.253906 43.992188 62.804688 43.992188 Z M 68.855469 42.554688 C 68.542969 42.554688 68.226562 42.421875 67.960938 42.195312 C 67.601562 41.746094 67.644531 41.027344 68.09375 40.625 L 80.148438 30.78125 C 80.597656 30.421875 81.3125 30.464844 81.71875 30.914062 C 82.074219 31.367188 82.03125 32.085938 81.582031 32.488281 L 69.527344 42.332031 C 69.347656 42.511719 69.078125 42.554688 68.855469 42.554688 Z M 68.855469 42.554688 " fill-opacity="1" fill-rule="evenodd"/><path fill="#000000" d="M 31.300781 57.476562 C 28.789062 57.476562 26.730469 55.410156 26.730469 52.847656 C 26.730469 50.285156 28.789062 48.21875 31.300781 48.21875 C 33.855469 48.21875 35.917969 50.285156 35.917969 52.847656 C 35.917969 55.410156 33.855469 57.476562 31.300781 57.476562 Z M 31.300781 50.464844 C 30 50.464844 28.878906 51.542969 28.878906 52.890625 C 28.878906 54.195312 29.957031 55.320312 31.300781 55.320312 C 32.691406 55.320312 33.71875 54.285156 33.71875 52.890625 C 33.808594 51.542969 32.691406 50.464844 31.300781 50.464844 Z M 31.300781 50.464844 " fill-opacity="1" fill-rule="evenodd"/><path fill="#000000" d="M 48.777344 43.992188 C 46.222656 43.992188 44.164062 41.925781 44.164062 39.410156 C 44.164062 36.847656 46.222656 34.78125 48.777344 34.78125 C 51.332031 34.78125 53.394531 36.847656 53.394531 39.410156 C 53.394531 41.925781 51.332031 43.992188 48.777344 43.992188 Z M 48.777344 36.9375 C 47.390625 36.9375 46.359375 38.015625 46.359375 39.410156 C 46.359375 40.757812 47.480469 41.835938 48.777344 41.835938 C 50.078125 41.835938 51.199219 40.757812 51.199219 39.410156 C 51.199219 38.015625 50.078125 36.9375 48.777344 36.9375 Z M 48.777344 36.9375 " fill-opacity="1" fill-rule="evenodd"/><path fill="#000000" d="M 66.167969 48.351562 C 63.613281 48.351562 61.59375 46.285156 61.59375 43.769531 C 61.59375 41.207031 63.613281 39.140625 66.167969 39.140625 C 68.722656 39.140625 70.78125 41.207031 70.78125 43.769531 C 70.78125 46.285156 68.722656 48.351562 66.167969 48.351562 Z M 66.167969 41.34375 C 64.867188 41.34375 63.746094 42.375 63.746094 43.769531 C 63.746094 45.074219 64.820312 46.195312 66.167969 46.195312 C 67.554688 46.195312 68.585938 45.117188 68.585938 43.769531 C 68.585938 42.421875 67.554688 41.34375 66.167969 41.34375 Z M 66.167969 41.34375 " fill-opacity="1" fill-rule="evenodd"/><g clip-path="url(#6208793b17)"><path fill="#000000" d="M 83.554688 34.015625 C 81 34.015625 78.984375 31.996094 78.984375 29.433594 C 78.984375 26.871094 81 24.804688 83.554688 24.804688 C 86.109375 24.804688 88.171875 26.871094 88.171875 29.433594 C 88.214844 31.996094 86.109375 34.015625 83.554688 34.015625 Z M 83.554688 27.007812 C 82.253906 27.007812 81.136719 28.039062 81.136719 29.433594 C 81.136719 30.78125 82.210938 31.859375 83.554688 31.859375 C 84.945312 31.859375 85.976562 30.734375 85.976562 29.433594 C 86.066406 28.128906 84.945312 27.007812 83.554688 27.007812 Z M 83.554688 27.007812 " fill-opacity="1" fill-rule="evenodd"/></g></svg>