<svg xmlns="http://www.w3.org/2000/svg" xmlns:xlink="http://www.w3.org/1999/xlink" width="128" zoomAndPan="magnify" viewBox="0 0 96 95.999999" height="128" preserveAspectRatio="xMidYMid meet" version="1.0"><defs><clipPath id="abb0ba4ac4"><path d="M 3 2 L 72 2 L 72 94 L 3 94 Z M 3 2 " clip-rule="nonzero"/></clipPath><clipPath id="25924502ba"><path d="M -22.894531 29.300781 L 57.445312 -9.570312 L 91.417969 60.640625 L 11.074219 99.511719 Z M -22.894531 29.300781 " clip-rule="nonzero"/></clipPath><clipPath id="5e8df7f716"><path d="M -22.894531 29.300781 L 57.445312 -9.570312 L 91.417969 60.640625 L 11.074219 99.511719 Z M -22.894531 29.300781 " clip-rule="nonzero"/></clipPath><clipPath id="e44f8ac6be"><path d="M 19.199219 20.914062 L 95.699219 20.914062 L 95.699219 83.164062 L 19.199219 83.164062 Z M 19.199219 20.914062 " clip-rule="nonzero"/></clipPath></defs><rect x="-9.6" width="115.2" fill="#ffffff" y="-9.6" height="115.199999" fill-opacity="1"/><rect x="-9.6" width="115.2" fill="#ffffff" y="-9.6" height="115.199999" fill-opacity="1"/><g clip-path="url(#abb0ba4ac4)"><g clip-path="url(#25924502ba)"><g clip-path="url(#5e8df7f716)"><path fill="#8ed5ff" d="M 38.554688 3.796875 C 22.03125 7.582031 9.441406 20.839844 5.710938 37.796875 C 3.207031 49.199219 2.800781 61.347656 3.433594 73.164062 C 3.769531 79.390625 4.703125 86.320312 9.402344 90.414062 C 13.40625 93.902344 19.277344 94.304688 24.117188 92.609375 C 28.953125 90.910156 32.9375 87.421875 36.539062 83.742188 C 45.394531 74.691406 52.621094 64.121094 59.800781 53.609375 C 63.679688 47.929688 67.601562 42.160156 69.785156 35.558594 C 71.972656 28.957031 72.230469 21.300781 68.90625 15.027344 C 64.148438 6.03125 53.105469 2.042969 43.355469 3.007812 C 41.730469 3.167969 40.132812 3.4375 38.554688 3.800781 Z M 38.554688 3.796875 " fill-opacity="1" fill-rule="nonzero"/></g></g></g><g clip-path="url(#e44f8ac6be)"><path fill="#000000" d="M 95.683594 51.511719 C 95.683594 60.019531 88.75 66.941406 80.226562 66.941406 C 79.566406 66.941406 79.035156 66.410156 79.035156 65.75 C 79.035156 65.089844 79.566406 64.558594 80.226562 64.558594 C 87.433594 64.558594 93.296875 58.703125 93.296875 51.511719 C 93.296875 44.316406 87.433594 38.460938 80.226562 38.460938 L 80.167969 38.460938 C 79.644531 38.460938 79.183594 38.121094 79.027344 37.621094 C 77.578125 32.933594 73.296875 29.78125 68.375 29.78125 C 65.589844 29.78125 62.917969 30.816406 60.863281 32.691406 C 60.570312 32.960938 60.160156 33.066406 59.773438 32.96875 C 59.386719 32.875 59.074219 32.59375 58.933594 32.21875 C 56.996094 26.882812 51.871094 23.300781 46.183594 23.300781 C 38.707031 23.300781 32.621094 29.375 32.621094 36.839844 C 32.621094 38.207031 32.824219 39.554688 33.226562 40.84375 C 33.335938 41.195312 33.273438 41.578125 33.0625 41.878906 C 32.855469 42.179688 32.515625 42.367188 32.144531 42.386719 C 26.234375 42.6875 21.601562 47.554688 21.601562 53.46875 C 21.601562 59.582031 26.585938 64.558594 32.714844 64.558594 L 33.269531 64.558594 C 33.925781 64.558594 34.460938 65.089844 34.460938 65.75 C 34.460938 66.410156 33.925781 66.941406 33.269531 66.941406 L 32.714844 66.941406 C 25.269531 66.941406 19.214844 60.898438 19.214844 53.46875 C 19.214844 50 20.542969 46.699219 22.953125 44.175781 C 25.019531 42.019531 27.6875 40.621094 30.582031 40.15625 C 30.351562 39.070312 30.234375 37.960938 30.234375 36.839844 C 30.234375 28.058594 37.390625 20.917969 46.183594 20.917969 C 52.320312 20.917969 57.898438 24.460938 60.539062 29.894531 C 62.820312 28.273438 65.546875 27.398438 68.375 27.398438 C 71.328125 27.398438 74.132812 28.328125 76.484375 30.089844 C 78.53125 31.617188 80.121094 33.726562 81.027344 36.097656 C 89.179688 36.511719 95.683594 43.269531 95.683594 51.511719 Z M 77.589844 46.371094 L 77.589844 74.378906 C 77.566406 76.925781 75.242188 79.207031 71.042969 80.820312 C 67.203125 82.292969 62.125 83.101562 56.746094 83.101562 C 51.367188 83.101562 46.289062 82.292969 42.449219 80.820312 C 38.25 79.210938 35.925781 76.925781 35.902344 74.390625 L 35.902344 46.339844 C 35.925781 43.792969 38.25 41.507812 42.449219 39.902344 C 46.289062 38.425781 51.367188 37.617188 56.746094 37.617188 C 62.125 37.617188 67.203125 38.425781 71.042969 39.902344 C 75.242188 41.507812 77.566406 43.792969 77.589844 46.328125 Z M 38.289062 46.371094 C 38.289062 47.820312 40.152344 49.402344 43.28125 50.605469 C 46.859375 51.980469 51.640625 52.738281 56.746094 52.738281 C 61.851562 52.738281 66.632812 51.980469 70.210938 50.605469 C 73.335938 49.402344 75.203125 47.820312 75.203125 46.371094 L 75.203125 46.339844 C 75.1875 44.902344 73.316406 43.324219 70.1875 42.125 C 66.613281 40.753906 61.839844 40 56.746094 40 C 51.652344 40 46.878906 40.753906 43.304688 42.125 C 40.175781 43.324219 38.300781 44.90625 38.289062 46.351562 Z M 75.203125 74.367188 L 75.203125 69.226562 C 74.144531 70.074219 72.75 70.839844 71.042969 71.492188 C 67.203125 72.964844 62.125 73.777344 56.746094 73.777344 C 51.367188 73.777344 46.289062 72.964844 42.449219 71.492188 C 40.742188 70.839844 39.347656 70.074219 38.289062 69.226562 L 38.289062 74.378906 C 38.300781 75.8125 40.175781 77.394531 43.304688 78.59375 C 46.878906 79.964844 51.652344 80.71875 56.746094 80.71875 C 61.839844 80.71875 66.613281 79.964844 70.1875 78.59375 C 73.316406 77.394531 75.1875 75.8125 75.203125 74.367188 Z M 75.203125 65.042969 L 75.203125 59.898438 C 74.144531 60.746094 72.75 61.511719 71.042969 62.167969 C 67.203125 63.640625 62.125 64.453125 56.746094 64.453125 C 51.367188 64.453125 46.289062 63.640625 42.449219 62.167969 C 40.742188 61.511719 39.347656 60.746094 38.289062 59.898438 L 38.289062 65.054688 C 38.300781 66.488281 40.175781 68.070312 43.304688 69.269531 C 46.878906 70.636719 51.652344 71.394531 56.746094 71.394531 C 61.839844 71.394531 66.613281 70.636719 70.1875 69.269531 C 73.316406 68.070312 75.1875 66.488281 75.203125 65.042969 Z M 75.203125 55.714844 L 75.203125 50.574219 C 74.148438 51.417969 72.761719 52.175781 71.070312 52.828125 C 67.226562 54.308594 62.136719 55.125 56.746094 55.125 C 51.355469 55.125 46.265625 54.308594 42.417969 52.828125 C 40.726562 52.175781 39.339844 51.417969 38.289062 50.574219 L 38.289062 55.726562 C 38.300781 57.160156 40.175781 58.742188 43.304688 59.941406 C 46.878906 61.316406 51.652344 62.070312 56.746094 62.070312 C 61.839844 62.070312 66.613281 61.316406 70.1875 59.941406 C 73.316406 58.742188 75.1875 57.160156 75.203125 55.714844 Z M 70.992188 54.757812 C 67.40625 56.320312 62.214844 57.21875 56.746094 57.21875 C 53.667969 57.21875 50.722656 56.941406 47.988281 56.402344 C 47.339844 56.273438 46.710938 56.695312 46.585938 57.339844 C 46.457031 57.984375 46.875 58.613281 47.523438 58.742188 C 50.410156 59.3125 53.515625 59.601562 56.746094 59.601562 C 62.53125 59.601562 68.070312 58.632812 71.945312 56.945312 C 72.550781 56.679688 72.828125 55.976562 72.5625 55.375 C 72.296875 54.769531 71.59375 54.496094 70.992188 54.757812 Z M 70.992188 64.476562 C 67.402344 66.035156 62.210938 66.929688 56.746094 66.929688 C 53.648438 66.929688 50.703125 66.65625 47.988281 66.117188 C 47.339844 65.988281 46.710938 66.40625 46.585938 67.050781 C 46.457031 67.695312 46.875 68.324219 47.523438 68.453125 C 50.386719 69.023438 53.492188 69.316406 56.746094 69.316406 C 62.527344 69.316406 68.066406 68.347656 71.945312 66.664062 C 72.546875 66.398438 72.828125 65.695312 72.5625 65.09375 C 72.300781 64.488281 71.597656 64.214844 70.992188 64.476562 Z M 70.992188 74.191406 C 67.414062 75.75 62.21875 76.644531 56.746094 76.644531 C 53.65625 76.644531 50.707031 76.371094 47.988281 75.835938 C 47.339844 75.707031 46.710938 76.125 46.585938 76.769531 C 46.457031 77.417969 46.875 78.046875 47.523438 78.171875 C 50.398438 78.738281 53.5 79.027344 56.746094 79.027344 C 62.539062 79.027344 68.078125 78.058594 71.945312 76.375 C 72.550781 76.113281 72.828125 75.410156 72.5625 74.804688 C 72.296875 74.203125 71.59375 73.925781 70.992188 74.191406 Z M 42.726562 54.511719 C 41.785156 54.511719 41.019531 55.277344 41.019531 56.21875 C 41.019531 57.160156 41.785156 57.921875 42.726562 57.921875 C 43.671875 57.921875 44.433594 57.160156 44.433594 56.21875 C 44.433594 55.277344 43.671875 54.511719 42.726562 54.511719 Z M 42.726562 64.074219 C 41.785156 64.074219 41.019531 64.839844 41.019531 65.78125 C 41.019531 66.722656 41.785156 67.484375 42.726562 67.484375 C 43.671875 67.484375 44.433594 66.722656 44.433594 65.78125 C 44.433594 64.839844 43.671875 64.074219 42.726562 64.074219 Z M 42.726562 73.273438 C 41.785156 73.273438 41.019531 74.039062 41.019531 74.976562 C 41.019531 75.917969 41.785156 76.683594 42.726562 76.683594 C 43.671875 76.683594 44.433594 75.917969 44.433594 74.976562 C 44.433594 74.039062 43.671875 73.273438 42.726562 73.273438 Z M 42.726562 73.273438 " fill-opacity="1" fill-rule="nonzero"/></g></svg>