<svg xmlns="http://www.w3.org/2000/svg" xmlns:xlink="http://www.w3.org/1999/xlink" width="400" zoomAndPan="magnify" viewBox="0 0 300 83.249999" height="111" preserveAspectRatio="xMidYMid meet" version="1.0"><defs><g/><clipPath id="6f15180484"><path d="M 1.339844 0 L 298.660156 0 L 298.660156 82.507812 L 1.339844 82.507812 Z M 1.339844 0 " clip-rule="nonzero"/></clipPath><clipPath id="7ff755027f"><path d="M 9 9 L 66 9 L 66 71 L 9 71 Z M 9 9 " clip-rule="nonzero"/></clipPath><clipPath id="93e2310493"><path d="M 40.820312 1.039062 L 73.542969 25.546875 L 33.886719 78.496094 L 1.167969 53.988281 Z M 40.820312 1.039062 " clip-rule="nonzero"/></clipPath><clipPath id="7c00fab7af"><path d="M 40.820312 1.039062 L 73.542969 25.546875 L 33.886719 78.496094 L 1.167969 53.988281 Z M 40.820312 1.039062 " clip-rule="nonzero"/></clipPath><clipPath id="e695ef9d9f"><path d="M 48 12 L 59 12 L 59 25 L 48 25 Z M 48 12 " clip-rule="nonzero"/></clipPath><clipPath id="a4c0ba68e0"><path d="M 40.820312 1.039062 L 73.542969 25.546875 L 33.886719 78.496094 L 1.167969 53.988281 Z M 40.820312 1.039062 " clip-rule="nonzero"/></clipPath><clipPath id="0a0bb66164"><path d="M 40.820312 1.039062 L 73.542969 25.546875 L 33.886719 78.496094 L 1.167969 53.988281 Z M 40.820312 1.039062 " clip-rule="nonzero"/></clipPath><clipPath id="040d801f01"><path d="M 55 12 L 59 12 L 59 16 L 55 16 Z M 55 12 " clip-rule="nonzero"/></clipPath><clipPath id="b026f9f52c"><path d="M 40.820312 1.039062 L 73.542969 25.546875 L 33.886719 78.496094 L 1.167969 53.988281 Z M 40.820312 1.039062 " clip-rule="nonzero"/></clipPath><clipPath id="31faf38a6e"><path d="M 40.820312 1.039062 L 73.542969 25.546875 L 33.886719 78.496094 L 1.167969 53.988281 Z M 40.820312 1.039062 " clip-rule="nonzero"/></clipPath><clipPath id="1e6d1b0802"><path d="M 44 39 L 51 39 L 51 63 L 44 63 Z M 44 39 " clip-rule="nonzero"/></clipPath><clipPath id="14d5b3004c"><path d="M 40.820312 1.039062 L 73.542969 25.546875 L 33.886719 78.496094 L 1.167969 53.988281 Z M 40.820312 1.039062 " clip-rule="nonzero"/></clipPath><clipPath id="18356063c0"><path d="M 40.820312 1.039062 L 73.542969 25.546875 L 33.886719 78.496094 L 1.167969 53.988281 Z M 40.820312 1.039062 " clip-rule="nonzero"/></clipPath><clipPath id="182fb8a3f3"><path d="M 44 53 L 51 53 L 51 63 L 44 63 Z M 44 53 " clip-rule="nonzero"/></clipPath><clipPath id="b78eded256"><path d="M 40.820312 1.039062 L 73.542969 25.546875 L 33.886719 78.496094 L 1.167969 53.988281 Z M 40.820312 1.039062 " clip-rule="nonzero"/></clipPath><clipPath id="8cd74dfd4f"><path d="M 40.820312 1.039062 L 73.542969 25.546875 L 33.886719 78.496094 L 1.167969 53.988281 Z M 40.820312 1.039062 " clip-rule="nonzero"/></clipPath><clipPath id="dc7d9e421a"><path d="M 13 29 L 37 29 L 37 39 L 13 39 Z M 13 29 " clip-rule="nonzero"/></clipPath><clipPath id="0df56d171f"><path d="M 40.820312 1.039062 L 73.542969 25.546875 L 33.886719 78.496094 L 1.167969 53.988281 Z M 40.820312 1.039062 " clip-rule="nonzero"/></clipPath><clipPath id="cd2b647376"><path d="M 40.820312 1.039062 L 73.542969 25.546875 L 33.886719 78.496094 L 1.167969 53.988281 Z M 40.820312 1.039062 " clip-rule="nonzero"/></clipPath><clipPath id="01cff4a74e"><path d="M 13 31 L 22 31 L 22 40 L 13 40 Z M 13 31 " clip-rule="nonzero"/></clipPath><clipPath id="442897f514"><path d="M 40.820312 1.039062 L 73.542969 25.546875 L 33.886719 78.496094 L 1.167969 53.988281 Z M 40.820312 1.039062 " clip-rule="nonzero"/></clipPath><clipPath id="7181eea084"><path d="M 40.820312 1.039062 L 73.542969 25.546875 L 33.886719 78.496094 L 1.167969 53.988281 Z M 40.820312 1.039062 " clip-rule="nonzero"/></clipPath><clipPath id="de276f7340"><path d="M 34 22 L 52 22 L 52 43 L 34 43 Z M 34 22 " clip-rule="nonzero"/></clipPath><clipPath id="0636749646"><path d="M 40.820312 1.039062 L 73.542969 25.546875 L 33.886719 78.496094 L 1.167969 53.988281 Z M 40.820312 1.039062 " clip-rule="nonzero"/></clipPath><clipPath id="08c05621b0"><path d="M 40.820312 1.039062 L 73.542969 25.546875 L 33.886719 78.496094 L 1.167969 53.988281 Z M 40.820312 1.039062 " clip-rule="nonzero"/></clipPath><clipPath id="9c3ddbbec1"><path d="M 47 23 L 51 23 L 51 27 L 47 27 Z M 47 23 " clip-rule="nonzero"/></clipPath><clipPath id="828b3a805d"><path d="M 40.820312 1.039062 L 73.542969 25.546875 L 33.886719 78.496094 L 1.167969 53.988281 Z M 40.820312 1.039062 " clip-rule="nonzero"/></clipPath><clipPath id="b043b28c89"><path d="M 40.820312 1.039062 L 73.542969 25.546875 L 33.886719 78.496094 L 1.167969 53.988281 Z M 40.820312 1.039062 " clip-rule="nonzero"/></clipPath><clipPath id="616984a5ba"><path d="M 42 37 L 46 37 L 46 41 L 42 41 Z M 42 37 " clip-rule="nonzero"/></clipPath><clipPath id="49670e1be4"><path d="M 40.820312 1.039062 L 73.542969 25.546875 L 33.886719 78.496094 L 1.167969 53.988281 Z M 40.820312 1.039062 " clip-rule="nonzero"/></clipPath><clipPath id="777b951312"><path d="M 40.820312 1.039062 L 73.542969 25.546875 L 33.886719 78.496094 L 1.167969 53.988281 Z M 40.820312 1.039062 " clip-rule="nonzero"/></clipPath><clipPath id="61f915a434"><path d="M 34 31 L 38 31 L 38 36 L 34 36 Z M 34 31 " clip-rule="nonzero"/></clipPath><clipPath id="f71ef05d9d"><path d="M 40.820312 1.039062 L 73.542969 25.546875 L 33.886719 78.496094 L 1.167969 53.988281 Z M 40.820312 1.039062 " clip-rule="nonzero"/></clipPath><clipPath id="c0bf2d699c"><path d="M 40.820312 1.039062 L 73.542969 25.546875 L 33.886719 78.496094 L 1.167969 53.988281 Z M 40.820312 1.039062 " clip-rule="nonzero"/></clipPath></defs><g clip-path="url(#6f15180484)"><path fill="#ffffff" d="M 1.339844 0 L 298.660156 0 L 298.660156 82.507812 L 1.339844 82.507812 Z M 1.339844 0 " fill-opacity="1" fill-rule="nonzero"/><path fill="#ffffff" d="M 1.339844 0 L 298.660156 0 L 298.660156 82.507812 L 1.339844 82.507812 Z M 1.339844 0 " fill-opacity="1" fill-rule="nonzero"/></g><g clip-path="url(#7ff755027f)"><g clip-path="url(#93e2310493)"><g clip-path="url(#7c00fab7af)"><path fill="#004aad" d="M 44.800781 60.609375 C 41.769531 64.65625 37.394531 67.085938 32.757812 67.75 C 28.117188 68.414062 23.238281 67.316406 19.191406 64.285156 C 15.144531 61.253906 12.714844 56.878906 12.046875 52.242188 C 11.386719 47.632812 12.46875 42.785156 15.449219 38.753906 L 14.832031 39.578125 L 13.046875 38.238281 C 10.140625 42.59375 9.105469 47.707031 9.804688 52.5625 C 10.550781 57.765625 13.289062 62.695312 17.832031 66.097656 C 22.375 69.5 27.875 70.742188 33.078125 69.992188 C 37.9375 69.296875 42.550781 66.867188 45.910156 62.855469 L 44.125 61.515625 L 44.800781 60.609375 M 58.203125 14.082031 L 56.84375 15.898438 C 60.359375 18.882812 62.480469 22.949219 63.097656 27.238281 C 63.765625 31.875 62.664062 36.757812 59.632812 40.804688 L 50.304688 53.261719 C 49.832031 56.328125 48.574219 59.347656 46.613281 61.964844 L 46.617188 61.964844 L 61.445312 42.164062 C 64.847656 37.621094 66.089844 32.121094 65.339844 26.914062 C 64.644531 22.058594 62.214844 17.441406 58.203125 14.082031 M 56.390625 12.726562 C 52.039062 9.820312 46.921875 8.785156 42.066406 9.484375 C 36.859375 10.230469 31.929688 12.96875 28.53125 17.511719 L 13.699219 37.316406 C 15.660156 34.695312 18.203125 32.644531 21.015625 31.328125 L 30.34375 18.871094 C 33.375 14.824219 37.75 12.394531 42.386719 11.726562 C 46.679688 11.113281 51.175781 12.007812 55.027344 14.542969 L 56.390625 12.726562 " fill-opacity="1" fill-rule="nonzero"/></g></g></g><g clip-path="url(#e695ef9d9f)"><g clip-path="url(#a4c0ba68e0)"><g clip-path="url(#0a0bb66164)"><path fill="#004aad" d="M 55.957031 15.191406 C 55.652344 14.964844 55.34375 14.746094 55.027344 14.542969 L 48.628906 23.085938 C 48.964844 23.25 49.292969 23.445312 49.601562 23.679688 C 49.910156 23.910156 50.191406 24.167969 50.441406 24.445312 L 56.839844 15.898438 C 56.554688 15.65625 56.261719 15.421875 55.957031 15.191406 M 58.21875 14.058594 L 56.40625 12.699219 L 56.390625 12.726562 C 56.699219 12.933594 57.007812 13.152344 57.3125 13.378906 C 57.316406 13.378906 57.316406 13.378906 57.316406 13.382812 C 57.621094 13.609375 57.914062 13.84375 58.203125 14.082031 L 58.21875 14.058594 " fill-opacity="1" fill-rule="nonzero"/></g></g></g><g clip-path="url(#040d801f01)"><g clip-path="url(#b026f9f52c)"><g clip-path="url(#31faf38a6e)"><path fill="#004aad" d="M 57.316406 13.382812 C 57.316406 13.378906 57.3125 13.378906 57.3125 13.378906 C 57.007812 13.152344 56.699219 12.933594 56.390625 12.726562 L 55.027344 14.542969 C 55.34375 14.746094 55.652344 14.964844 55.957031 15.191406 C 56.261719 15.421875 56.554688 15.65625 56.839844 15.898438 L 58.203125 14.082031 C 57.914062 13.84375 57.617188 13.609375 57.316406 13.382812 " fill-opacity="1" fill-rule="nonzero"/></g></g></g><g clip-path="url(#1e6d1b0802)"><g clip-path="url(#14d5b3004c)"><g clip-path="url(#18356063c0)"><path fill="#004aad" d="M 46.617188 61.964844 C 46.386719 62.269531 46.152344 62.566406 45.910156 62.855469 L 45.9375 62.871094 L 46.617188 61.964844 M 45.457031 39.035156 L 44.683594 40.066406 C 44.484375 40.332031 44.265625 40.578125 44.03125 40.800781 C 45.226562 41.855469 46.148438 43.074219 46.828125 44.40625 C 48.066406 46.835938 48.484375 49.652344 48.125 52.488281 C 47.769531 55.320312 46.632812 58.164062 44.800781 60.609375 L 50.304688 53.261719 C 50.496094 52.023438 50.558594 50.773438 50.484375 49.539062 C 50.359375 47.394531 49.824219 45.296875 48.847656 43.378906 C 48.03125 41.773438 46.898438 40.292969 45.457031 39.035156 " fill-opacity="1" fill-rule="nonzero"/></g></g></g><g clip-path="url(#182fb8a3f3)"><g clip-path="url(#b78eded256)"><g clip-path="url(#8cd74dfd4f)"><path fill="#004aad" d="M 46.613281 61.964844 L 45.707031 61.289062 L 44.800781 60.609375 L 44.125 61.515625 L 45.910156 62.855469 C 46.152344 62.566406 46.386719 62.269531 46.613281 61.964844 M 50.304688 53.261719 L 44.800781 60.609375 L 45.707031 61.289062 L 46.613281 61.964844 L 46.617188 61.964844 L 46.613281 61.964844 C 48.574219 59.347656 49.832031 56.328125 50.304688 53.261719 " fill-opacity="1" fill-rule="nonzero"/></g></g></g><g clip-path="url(#dc7d9e421a)"><g clip-path="url(#0df56d171f)"><g clip-path="url(#cd2b647376)"><path fill="#004aad" d="M 13.699219 37.316406 L 13.019531 38.222656 L 13.046875 38.238281 C 13.253906 37.925781 13.472656 37.617188 13.699219 37.316406 M 15.511719 38.671875 C 15.492188 38.699219 15.472656 38.726562 15.449219 38.753906 L 15.511719 38.671875 M 36.03125 31.976562 C 34.414062 30.945312 32.679688 30.277344 30.910156 29.945312 C 27.734375 29.347656 24.453125 29.820312 21.464844 31.121094 C 21.316406 31.1875 21.164062 31.257812 21.015625 31.328125 L 15.511719 38.671875 C 17.953125 35.410156 21.421875 33.144531 25.046875 32.3125 C 26.855469 31.894531 28.703125 31.832031 30.492188 32.167969 C 31.957031 32.445312 33.386719 32.988281 34.738281 33.839844 C 34.886719 33.550781 35.058594 33.273438 35.257812 33.007812 L 36.03125 31.976562 " fill-opacity="1" fill-rule="nonzero"/></g></g></g><g clip-path="url(#01cff4a74e)"><g clip-path="url(#442897f514)"><g clip-path="url(#7181eea084)"><path fill="#004aad" d="M 21.015625 31.328125 C 18.203125 32.644531 15.660156 34.695312 13.699219 37.316406 C 13.472656 37.617188 13.253906 37.925781 13.046875 38.238281 L 14.832031 39.578125 L 15.449219 38.753906 C 15.472656 38.726562 15.492188 38.699219 15.511719 38.671875 L 21.015625 31.328125 " fill-opacity="1" fill-rule="nonzero"/></g></g></g><g clip-path="url(#de276f7340)"><g clip-path="url(#0636749646)"><g clip-path="url(#08c05621b0)"><path fill="#004aad" d="M 50.441406 24.445312 L 49.148438 26.171875 L 48.242188 25.492188 C 49.046875 26.09375 49.523438 26.953125 49.65625 27.875 C 49.789062 28.796875 49.570312 29.757812 48.972656 30.5625 L 42.871094 38.707031 L 43.667969 37.644531 L 44.574219 38.320312 C 44.574219 38.324219 44.578125 38.324219 44.578125 38.324219 C 44.882812 38.550781 45.175781 38.789062 45.457031 39.035156 L 50.785156 31.917969 C 51.757812 30.621094 52.113281 29.042969 51.898438 27.554688 C 51.738281 26.421875 51.242188 25.332031 50.441406 24.445312 M 48.628906 23.085938 C 47.554688 22.566406 46.367188 22.402344 45.234375 22.5625 C 43.746094 22.777344 42.332031 23.5625 41.359375 24.863281 L 36.03125 31.976562 C 36.347656 32.175781 36.65625 32.394531 36.964844 32.621094 L 37.871094 33.300781 L 36.511719 35.113281 L 35.605469 34.433594 C 35.320312 34.222656 35.03125 34.023438 34.738281 33.839844 C 34.164062 34.949219 33.972656 36.191406 34.144531 37.375 C 34.355469 38.859375 35.144531 40.277344 36.441406 41.246094 C 36.441406 41.25 36.441406 41.25 36.441406 41.25 C 37.742188 42.222656 39.320312 42.578125 40.808594 42.363281 C 41.992188 42.195312 43.128906 41.664062 44.03125 40.800781 C 43.773438 40.570312 43.5 40.347656 43.21875 40.132812 L 42.308594 39.457031 L 42.871094 38.707031 C 42.265625 39.511719 41.40625 39.988281 40.484375 40.121094 C 39.5625 40.253906 38.601562 40.035156 37.800781 39.4375 C 36.996094 38.832031 36.519531 37.972656 36.386719 37.050781 C 36.253906 36.128906 36.46875 35.167969 37.070312 34.367188 L 43.171875 26.21875 C 43.773438 25.417969 44.636719 24.9375 45.558594 24.804688 C 46.476562 24.675781 47.4375 24.890625 48.242188 25.492188 L 47.335938 24.8125 L 48.628906 23.085938 " fill-opacity="1" fill-rule="nonzero"/></g></g></g><g clip-path="url(#9c3ddbbec1)"><g clip-path="url(#828b3a805d)"><g clip-path="url(#b043b28c89)"><path fill="#004aad" d="M 49.601562 23.679688 C 49.289062 23.445312 48.964844 23.25 48.628906 23.085938 L 47.335938 24.8125 L 49.148438 26.171875 L 50.441406 24.445312 C 50.191406 24.167969 49.910156 23.910156 49.601562 23.679688 " fill-opacity="1" fill-rule="nonzero"/></g></g></g><g clip-path="url(#616984a5ba)"><g clip-path="url(#49670e1be4)"><g clip-path="url(#777b951312)"><path fill="#004aad" d="M 44.683594 40.066406 L 42.871094 38.707031 L 42.308594 39.457031 L 43.21875 40.132812 C 43.5 40.347656 43.773438 40.570312 44.03125 40.796875 C 44.265625 40.578125 44.484375 40.332031 44.683594 40.066406 M 44.578125 38.324219 C 44.578125 38.324219 44.574219 38.324219 44.574219 38.320312 L 43.667969 37.640625 L 42.871094 38.707031 L 44.683594 40.066406 L 45.457031 39.035156 C 45.175781 38.789062 44.882812 38.550781 44.578125 38.324219 " fill-opacity="1" fill-rule="nonzero"/></g></g></g><g clip-path="url(#61f915a434)"><g clip-path="url(#f71ef05d9d)"><g clip-path="url(#c0bf2d699c)"><path fill="#004aad" d="M 37.871094 33.300781 L 36.964844 32.621094 C 36.65625 32.390625 36.347656 32.175781 36.03125 31.976562 L 35.257812 33.007812 C 35.058594 33.273438 34.886719 33.550781 34.738281 33.839844 C 35.03125 34.023438 35.320312 34.222656 35.605469 34.433594 L 36.511719 35.113281 L 37.871094 33.300781 " fill-opacity="1" fill-rule="nonzero"/></g></g></g><g fill="#004aad" fill-opacity="1"><g transform="translate(71.025873, 48.338261)"><g><path d="M 6.84375 0 C 6.101562 0 5.46875 -0.257812 4.9375 -0.78125 C 4.40625 -1.3125 4.140625 -1.945312 4.140625 -2.6875 L 4.140625 -28.09375 C 4.140625 -28.632812 4.328125 -29.097656 4.703125 -29.484375 C 5.078125 -29.867188 5.535156 -30.0625 6.078125 -30.0625 C 6.617188 -30.0625 7.082031 -29.867188 7.46875 -29.484375 C 7.851562 -29.097656 8.046875 -28.632812 8.046875 -28.09375 L 8.046875 -3.890625 L 22.03125 -3.890625 C 22.570312 -3.890625 23.03125 -3.695312 23.40625 -3.3125 C 23.789062 -2.925781 23.984375 -2.460938 23.984375 -1.921875 C 23.984375 -1.378906 23.789062 -0.921875 23.40625 -0.546875 C 23.03125 -0.179688 22.570312 0 22.03125 0 Z M 6.84375 0 "/></g></g></g><g fill="#004aad" fill-opacity="1"><g transform="translate(95.650774, 48.338261)"><g><path d="M 10.8125 0.421875 C 9.25 0.421875 7.890625 0.0507812 6.734375 -0.6875 C 5.578125 -1.425781 4.691406 -2.4375 4.078125 -3.71875 C 3.472656 -5 3.171875 -6.410156 3.171875 -7.953125 L 3.171875 -20.09375 C 3.171875 -20.632812 3.359375 -21.09375 3.734375 -21.46875 C 4.117188 -21.84375 4.582031 -22.03125 5.125 -22.03125 C 5.664062 -22.03125 6.125 -21.84375 6.5 -21.46875 C 6.875 -21.09375 7.0625 -20.632812 7.0625 -20.09375 L 7.0625 -8.375 C 7.0625 -4.90625 8.628906 -3.171875 11.765625 -3.171875 C 13.191406 -3.171875 14.46875 -3.539062 15.59375 -4.28125 C 16.71875 -5.019531 17.78125 -6.015625 18.78125 -7.265625 L 18.78125 -20.09375 C 18.78125 -20.632812 18.96875 -21.09375 19.34375 -21.46875 C 19.726562 -21.84375 20.191406 -22.03125 20.734375 -22.03125 C 21.273438 -22.03125 21.734375 -21.84375 22.109375 -21.46875 C 22.484375 -21.09375 22.671875 -20.632812 22.671875 -20.09375 L 22.671875 -1.75 C 22.671875 -1.207031 22.484375 -0.742188 22.109375 -0.359375 C 21.734375 0.0234375 21.273438 0.21875 20.734375 0.21875 C 20.191406 0.21875 19.726562 0.0234375 19.34375 -0.359375 C 18.96875 -0.742188 18.78125 -1.207031 18.78125 -1.75 L 18.78125 -3.5 C 17.695312 -2.300781 16.523438 -1.347656 15.265625 -0.640625 C 14.015625 0.0664062 12.53125 0.421875 10.8125 0.421875 Z M 10.8125 0.421875 "/></g></g></g><g fill="#004aad" fill-opacity="1"><g transform="translate(121.686473, 48.338261)"><g><path d="M 5.21875 -26.265625 C 4.613281 -26.265625 4.097656 -26.476562 3.671875 -26.90625 C 3.242188 -27.332031 3.03125 -27.84375 3.03125 -28.4375 L 3.03125 -28.609375 C 3.03125 -29.210938 3.242188 -29.726562 3.671875 -30.15625 C 4.097656 -30.582031 4.613281 -30.796875 5.21875 -30.796875 L 5.46875 -30.796875 C 6.070312 -30.796875 6.585938 -30.582031 7.015625 -30.15625 C 7.441406 -29.726562 7.65625 -29.210938 7.65625 -28.609375 L 7.65625 -28.4375 C 7.65625 -27.84375 7.441406 -27.332031 7.015625 -26.90625 C 6.585938 -26.476562 6.070312 -26.265625 5.46875 -26.265625 Z M 5.296875 0.21875 C 4.753906 0.21875 4.296875 0.0351562 3.921875 -0.328125 C 3.554688 -0.703125 3.375 -1.160156 3.375 -1.703125 L 3.375 -20.0625 C 3.375 -20.601562 3.554688 -21.066406 3.921875 -21.453125 C 4.296875 -21.835938 4.753906 -22.03125 5.296875 -22.03125 C 5.867188 -22.03125 6.335938 -21.84375 6.703125 -21.46875 C 7.078125 -21.09375 7.265625 -20.625 7.265625 -20.0625 L 7.265625 -1.703125 C 7.265625 -1.160156 7.070312 -0.703125 6.6875 -0.328125 C 6.300781 0.0351562 5.835938 0.21875 5.296875 0.21875 Z M 5.296875 0.21875 "/></g></g></g><g fill="#004aad" fill-opacity="1"><g transform="translate(132.331617, 48.338261)"><g><path d="M 10.4375 0.421875 C 7.582031 0.421875 4.988281 -0.21875 2.65625 -1.5 C 2.164062 -1.84375 1.921875 -2.3125 1.921875 -2.90625 C 1.921875 -3.363281 2.078125 -3.765625 2.390625 -4.109375 C 2.703125 -4.453125 3.101562 -4.625 3.59375 -4.625 C 3.851562 -4.625 4.109375 -4.566406 4.359375 -4.453125 C 5.273438 -4.046875 6.1875 -3.726562 7.09375 -3.5 C 8.007812 -3.28125 9.035156 -3.171875 10.171875 -3.171875 C 13.335938 -3.171875 14.921875 -4.179688 14.921875 -6.203125 C 14.921875 -6.859375 14.554688 -7.359375 13.828125 -7.703125 C 13.109375 -8.046875 11.921875 -8.429688 10.265625 -8.859375 C 8.578125 -9.253906 7.1875 -9.664062 6.09375 -10.09375 C 5 -10.519531 4.054688 -11.164062 3.265625 -12.03125 C 2.484375 -12.90625 2.09375 -14.054688 2.09375 -15.484375 C 2.09375 -17.472656 2.8125 -19.09375 4.25 -20.34375 C 5.695312 -21.601562 7.757812 -22.234375 10.4375 -22.234375 C 12.632812 -22.234375 14.703125 -21.878906 16.640625 -21.171875 C 17.035156 -21.054688 17.335938 -20.84375 17.546875 -20.53125 C 17.765625 -20.21875 17.875 -19.890625 17.875 -19.546875 C 17.875 -19.085938 17.707031 -18.6875 17.375 -18.34375 C 17.050781 -18 16.648438 -17.828125 16.171875 -17.828125 C 16.023438 -17.828125 15.835938 -17.859375 15.609375 -17.921875 C 13.953125 -18.429688 12.328125 -18.6875 10.734375 -18.6875 C 9.191406 -18.6875 7.984375 -18.40625 7.109375 -17.84375 C 6.242188 -17.289062 5.8125 -16.570312 5.8125 -15.6875 C 5.8125 -14.832031 6.210938 -14.207031 7.015625 -13.8125 C 7.816406 -13.414062 9.054688 -13.03125 10.734375 -12.65625 C 12.410156 -12.226562 13.773438 -11.804688 14.828125 -11.390625 C 15.890625 -10.984375 16.796875 -10.335938 17.546875 -9.453125 C 18.304688 -8.566406 18.6875 -7.382812 18.6875 -5.90625 C 18.6875 -4.082031 17.96875 -2.570312 16.53125 -1.375 C 15.09375 -0.175781 13.0625 0.421875 10.4375 0.421875 Z M 10.4375 0.421875 "/></g></g></g><g fill="#004aad" fill-opacity="1"><g transform="translate(152.852367, 48.338261)"><g/></g></g><g fill="#004aad" fill-opacity="1"><g transform="translate(163.96777, 48.338261)"><g><path d="M 6.078125 0.21875 C 5.535156 0.21875 5.078125 0.0351562 4.703125 -0.328125 C 4.328125 -0.703125 4.140625 -1.160156 4.140625 -1.703125 L 4.140625 -27.234375 C 4.140625 -28.003906 4.410156 -28.664062 4.953125 -29.21875 C 5.492188 -29.78125 6.148438 -30.0625 6.921875 -30.0625 L 8.34375 -30.0625 C 8.90625 -30.0625 9.421875 -29.890625 9.890625 -29.546875 C 10.367188 -29.203125 10.722656 -28.773438 10.953125 -28.265625 L 20.65625 -4.0625 L 30.359375 -28.265625 C 30.585938 -28.773438 30.9375 -29.203125 31.40625 -29.546875 C 31.875 -29.890625 32.394531 -30.0625 32.96875 -30.0625 L 34.390625 -30.0625 C 35.148438 -30.0625 35.800781 -29.78125 36.34375 -29.21875 C 36.882812 -28.664062 37.15625 -28.003906 37.15625 -27.234375 L 37.15625 -1.703125 C 37.15625 -1.160156 36.96875 -0.703125 36.59375 -0.328125 C 36.226562 0.0351562 35.773438 0.21875 35.234375 0.21875 C 34.691406 0.21875 34.226562 0.0351562 33.84375 -0.328125 C 33.457031 -0.703125 33.265625 -1.160156 33.265625 -1.703125 L 33.265625 -26 L 23.390625 -1.578125 C 23.160156 -1.035156 22.796875 -0.597656 22.296875 -0.265625 C 21.796875 0.0546875 21.25 0.21875 20.65625 0.21875 C 20.050781 0.21875 19.5 0.0546875 19 -0.265625 C 18.507812 -0.597656 18.148438 -1.035156 17.921875 -1.578125 L 8.046875 -26 L 8.046875 -1.703125 C 8.046875 -1.160156 7.851562 -0.703125 7.46875 -0.328125 C 7.082031 0.0351562 6.617188 0.21875 6.078125 0.21875 Z M 6.078125 0.21875 "/></g></g></g><g fill="#004aad" fill-opacity="1"><g transform="translate(205.26578, 48.338261)"><g><path d="M 8.9375 0.421875 C 7.6875 0.421875 6.523438 0.164062 5.453125 -0.34375 C 4.378906 -0.851562 3.53125 -1.597656 2.90625 -2.578125 C 2.28125 -3.566406 1.96875 -4.703125 1.96875 -5.984375 C 1.96875 -8.097656 2.800781 -9.78125 4.46875 -11.03125 C 6.132812 -12.289062 8.578125 -12.921875 11.796875 -12.921875 L 16.984375 -12.921875 L 16.984375 -13.25 C 16.984375 -15.132812 16.519531 -16.488281 15.59375 -17.3125 C 14.664062 -18.144531 13.21875 -18.5625 11.25 -18.5625 C 10.164062 -18.5625 9.203125 -18.472656 8.359375 -18.296875 C 7.515625 -18.128906 6.582031 -17.875 5.5625 -17.53125 C 5.332031 -17.476562 5.144531 -17.453125 5 -17.453125 C 4.570312 -17.453125 4.203125 -17.609375 3.890625 -17.921875 C 3.578125 -18.234375 3.421875 -18.617188 3.421875 -19.078125 C 3.421875 -19.847656 3.789062 -20.390625 4.53125 -20.703125 C 6.957031 -21.722656 9.425781 -22.234375 11.9375 -22.234375 C 13.894531 -22.234375 15.550781 -21.832031 16.90625 -21.03125 C 18.257812 -20.238281 19.257812 -19.207031 19.90625 -17.9375 C 20.550781 -16.664062 20.875 -15.289062 20.875 -13.8125 L 20.875 -1.703125 C 20.875 -1.160156 20.679688 -0.703125 20.296875 -0.328125 C 19.910156 0.0351562 19.445312 0.21875 18.90625 0.21875 C 18.363281 0.21875 17.90625 0.0351562 17.53125 -0.328125 C 17.164062 -0.703125 16.984375 -1.160156 16.984375 -1.703125 L 16.984375 -2.828125 C 14.867188 -0.660156 12.1875 0.421875 8.9375 0.421875 Z M 10.390625 -3 C 11.648438 -3 12.863281 -3.300781 14.03125 -3.90625 C 15.195312 -4.519531 16.179688 -5.285156 16.984375 -6.203125 L 16.984375 -9.796875 L 12.3125 -9.796875 C 8.007812 -9.796875 5.859375 -8.671875 5.859375 -6.421875 C 5.859375 -5.390625 6.207031 -4.5625 6.90625 -3.9375 C 7.601562 -3.3125 8.765625 -3 10.390625 -3 Z M 10.390625 -3 "/></g></g></g><g fill="#004aad" fill-opacity="1"><g transform="translate(229.292157, 48.338261)"><g><path d="M 8.25 10.046875 C 7.738281 10.046875 7.304688 9.859375 6.953125 9.484375 C 6.597656 9.117188 6.421875 8.679688 6.421875 8.171875 C 6.421875 7.941406 6.460938 7.710938 6.546875 7.484375 L 9.328125 0.34375 L 1.28125 -19.25 C 1.164062 -19.53125 1.109375 -19.800781 1.109375 -20.0625 C 1.109375 -20.601562 1.289062 -21.066406 1.65625 -21.453125 C 2.03125 -21.835938 2.488281 -22.03125 3.03125 -22.03125 C 3.4375 -22.03125 3.800781 -21.914062 4.125 -21.6875 C 4.457031 -21.457031 4.691406 -21.171875 4.828125 -20.828125 L 11.421875 -4.484375 L 18.125 -20.734375 C 18.5 -21.597656 19.097656 -22.03125 19.921875 -22.03125 C 20.460938 -22.03125 20.921875 -21.835938 21.296875 -21.453125 C 21.671875 -21.066406 21.859375 -20.601562 21.859375 -20.0625 C 21.859375 -19.800781 21.8125 -19.554688 21.71875 -19.328125 L 10.046875 8.71875 C 9.648438 9.601562 9.050781 10.046875 8.25 10.046875 Z M 8.25 10.046875 "/></g></g></g><g fill="#004aad" fill-opacity="1"><g transform="translate(252.249751, 48.338261)"><g><path d="M 10.90625 0.421875 C 6.738281 0.421875 4.65625 -1.457031 4.65625 -5.21875 L 4.65625 -18.46875 L 1.625 -18.46875 C 1.394531 -18.46875 1.203125 -18.546875 1.046875 -18.703125 C 0.890625 -18.859375 0.8125 -19.050781 0.8125 -19.28125 C 0.8125 -19.570312 0.941406 -19.816406 1.203125 -20.015625 L 7.015625 -25.703125 C 7.273438 -25.960938 7.515625 -26.09375 7.734375 -26.09375 C 7.960938 -26.09375 8.15625 -26.003906 8.3125 -25.828125 C 8.46875 -25.660156 8.546875 -25.460938 8.546875 -25.234375 L 8.546875 -21.8125 L 13.390625 -21.8125 C 13.867188 -21.8125 14.265625 -21.65625 14.578125 -21.34375 C 14.890625 -21.03125 15.046875 -20.628906 15.046875 -20.140625 C 15.046875 -19.679688 14.890625 -19.285156 14.578125 -18.953125 C 14.265625 -18.628906 13.867188 -18.46875 13.390625 -18.46875 L 8.546875 -18.46875 L 8.546875 -5.5625 C 8.546875 -4.445312 8.8125 -3.738281 9.34375 -3.4375 C 9.875 -3.144531 10.535156 -3 11.328125 -3 C 11.898438 -3 12.472656 -3.082031 13.046875 -3.25 C 13.160156 -3.28125 13.28125 -3.304688 13.40625 -3.328125 C 13.53125 -3.359375 13.695312 -3.375 13.90625 -3.375 C 14.300781 -3.375 14.65625 -3.222656 14.96875 -2.921875 C 15.28125 -2.628906 15.4375 -2.269531 15.4375 -1.84375 C 15.4375 -1.1875 15.109375 -0.6875 14.453125 -0.34375 C 13.335938 0.164062 12.15625 0.421875 10.90625 0.421875 Z M 10.90625 0.421875 "/></g></g></g><g fill="#004aad" fill-opacity="1"><g transform="translate(268.580834, 48.338261)"><g><path d="M 8.9375 0.421875 C 7.6875 0.421875 6.523438 0.164062 5.453125 -0.34375 C 4.378906 -0.851562 3.53125 -1.597656 2.90625 -2.578125 C 2.28125 -3.566406 1.96875 -4.703125 1.96875 -5.984375 C 1.96875 -8.097656 2.800781 -9.78125 4.46875 -11.03125 C 6.132812 -12.289062 8.578125 -12.921875 11.796875 -12.921875 L 16.984375 -12.921875 L 16.984375 -13.25 C 16.984375 -15.132812 16.519531 -16.488281 15.59375 -17.3125 C 14.664062 -18.144531 13.21875 -18.5625 11.25 -18.5625 C 10.164062 -18.5625 9.203125 -18.472656 8.359375 -18.296875 C 7.515625 -18.128906 6.582031 -17.875 5.5625 -17.53125 C 5.332031 -17.476562 5.144531 -17.453125 5 -17.453125 C 4.570312 -17.453125 4.203125 -17.609375 3.890625 -17.921875 C 3.578125 -18.234375 3.421875 -18.617188 3.421875 -19.078125 C 3.421875 -19.847656 3.789062 -20.390625 4.53125 -20.703125 C 6.957031 -21.722656 9.425781 -22.234375 11.9375 -22.234375 C 13.894531 -22.234375 15.550781 -21.832031 16.90625 -21.03125 C 18.257812 -20.238281 19.257812 -19.207031 19.90625 -17.9375 C 20.550781 -16.664062 20.875 -15.289062 20.875 -13.8125 L 20.875 -1.703125 C 20.875 -1.160156 20.679688 -0.703125 20.296875 -0.328125 C 19.910156 0.0351562 19.445312 0.21875 18.90625 0.21875 C 18.363281 0.21875 17.90625 0.0351562 17.53125 -0.328125 C 17.164062 -0.703125 16.984375 -1.160156 16.984375 -1.703125 L 16.984375 -2.828125 C 14.867188 -0.660156 12.1875 0.421875 8.9375 0.421875 Z M 10.390625 -3 C 11.648438 -3 12.863281 -3.300781 14.03125 -3.90625 C 15.195312 -4.519531 16.179688 -5.285156 16.984375 -6.203125 L 16.984375 -9.796875 L 12.3125 -9.796875 C 8.007812 -9.796875 5.859375 -8.671875 5.859375 -6.421875 C 5.859375 -5.390625 6.207031 -4.5625 6.90625 -3.9375 C 7.601562 -3.3125 8.765625 -3 10.390625 -3 Z M 10.390625 -3 "/></g></g></g><g fill="#004aad" fill-opacity="1"><g transform="translate(73.798098, 70.217639)"><g><path d="M 0.828125 0 L 0.828125 -7.71875 L 5.609375 -7.71875 L 5.609375 -6.53125 L 2.390625 -6.53125 L 2.390625 -4.5 L 4.84375 -4.5 L 4.84375 -3.3125 L 2.390625 -3.3125 L 2.390625 0 Z M 0.828125 0 "/></g></g></g><g fill="#004aad" fill-opacity="1"><g transform="translate(80.62467, 70.217639)"><g><path d="M 0.8125 -2.96875 L 0.8125 -7.71875 L 2.375 -7.71875 L 2.375 -2.96875 C 2.375 -2.4375 2.503906 -2.03125 2.765625 -1.75 C 3.035156 -1.476562 3.421875 -1.34375 3.921875 -1.34375 C 4.421875 -1.34375 4.804688 -1.476562 5.078125 -1.75 C 5.359375 -2.03125 5.5 -2.4375 5.5 -2.96875 L 5.5 -7.71875 L 7.046875 -7.71875 L 7.046875 -2.96875 C 7.046875 -1.988281 6.738281 -1.234375 6.125 -0.703125 C 5.507812 -0.179688 4.765625 0.078125 3.890625 0.078125 C 3.015625 0.078125 2.28125 -0.179688 1.6875 -0.703125 C 1.101562 -1.234375 0.8125 -1.988281 0.8125 -2.96875 Z M 0.8125 -2.96875 "/></g></g></g><g fill="#004aad" fill-opacity="1"><g transform="translate(89.28788, 70.217639)"><g><path d="M 0.828125 -7.71875 L 2.390625 -7.71875 L 2.390625 -1.1875 L 4.875 -1.1875 L 4.875 0 L 0.828125 0 Z M 0.828125 -7.71875 "/></g></g></g><g fill="#004aad" fill-opacity="1"><g transform="translate(95.196119, 70.217639)"><g><path d="M 0.828125 -7.71875 L 2.390625 -7.71875 L 2.390625 -1.1875 L 4.875 -1.1875 L 4.875 0 L 0.828125 0 Z M 0.828125 -7.71875 "/></g></g></g><g fill="#004aad" fill-opacity="1"><g transform="translate(101.104359, 70.217639)"><g/></g></g><g fill="#004aad" fill-opacity="1"><g transform="translate(105.242337, 70.217639)"><g><path d="M 3.328125 -6.578125 C 3.015625 -6.578125 2.757812 -6.5 2.5625 -6.34375 C 2.375 -6.1875 2.28125 -5.96875 2.28125 -5.6875 C 2.28125 -5.40625 2.347656 -5.1875 2.484375 -5.03125 C 2.628906 -4.875 2.820312 -4.75 3.0625 -4.65625 C 3.300781 -4.570312 3.5625 -4.5 3.84375 -4.4375 C 4.125 -4.375 4.398438 -4.289062 4.671875 -4.1875 C 4.953125 -4.09375 5.210938 -3.972656 5.453125 -3.828125 C 5.691406 -3.691406 5.878906 -3.488281 6.015625 -3.21875 C 6.160156 -2.957031 6.234375 -2.632812 6.234375 -2.25 C 6.234375 -1.613281 5.976562 -1.066406 5.46875 -0.609375 C 4.96875 -0.148438 4.300781 0.078125 3.46875 0.078125 C 2.632812 0.078125 1.957031 -0.117188 1.4375 -0.515625 C 0.914062 -0.910156 0.65625 -1.460938 0.65625 -2.171875 L 2.328125 -2.171875 C 2.378906 -1.492188 2.765625 -1.15625 3.484375 -1.15625 C 3.835938 -1.15625 4.117188 -1.25 4.328125 -1.4375 C 4.535156 -1.625 4.640625 -1.867188 4.640625 -2.171875 C 4.640625 -2.484375 4.5 -2.722656 4.21875 -2.890625 C 3.945312 -3.066406 3.617188 -3.195312 3.234375 -3.28125 C 2.847656 -3.375 2.457031 -3.484375 2.0625 -3.609375 C 1.675781 -3.742188 1.34375 -3.96875 1.0625 -4.28125 C 0.789062 -4.59375 0.65625 -5.003906 0.65625 -5.515625 C 0.65625 -6.222656 0.910156 -6.785156 1.421875 -7.203125 C 1.929688 -7.617188 2.585938 -7.828125 3.390625 -7.828125 C 4.191406 -7.828125 4.832031 -7.644531 5.3125 -7.28125 C 5.800781 -6.914062 6.070312 -6.363281 6.125 -5.625 L 4.40625 -5.625 C 4.382812 -5.914062 4.273438 -6.144531 4.078125 -6.3125 C 3.890625 -6.488281 3.640625 -6.578125 3.328125 -6.578125 Z M 3.328125 -6.578125 "/></g></g></g><g fill="#004aad" fill-opacity="1"><g transform="translate(112.965098, 70.217639)"><g><path d="M 0.375 -6.53125 L 0.375 -7.71875 L 6.09375 -7.71875 L 6.09375 -6.53125 L 4 -6.53125 L 4 0 L 2.453125 0 L 2.453125 -6.53125 Z M 0.375 -6.53125 "/></g></g></g><g fill="#004aad" fill-opacity="1"><g transform="translate(120.245301, 70.217639)"><g><path d="M 5.890625 0 L 5.40625 -1.453125 L 2.390625 -1.453125 L 1.890625 0 L 0.25 0 L 2.96875 -7.75 L 4.828125 -7.75 L 7.546875 0 Z M 2.796875 -2.640625 L 5 -2.640625 L 3.890625 -5.859375 Z M 2.796875 -2.640625 "/></g></g></g><g fill="#004aad" fill-opacity="1"><g transform="translate(128.864251, 70.217639)"><g><path d="M 1.53125 -1.046875 C 0.769531 -1.796875 0.390625 -2.738281 0.390625 -3.875 C 0.390625 -5.019531 0.769531 -5.960938 1.53125 -6.703125 C 2.300781 -7.453125 3.238281 -7.828125 4.34375 -7.828125 C 5.1875 -7.828125 5.929688 -7.613281 6.578125 -7.1875 C 7.234375 -6.757812 7.703125 -6.160156 7.984375 -5.390625 L 6.125 -5.390625 C 5.769531 -6.066406 5.175781 -6.40625 4.34375 -6.40625 C 3.644531 -6.40625 3.078125 -6.171875 2.640625 -5.703125 C 2.203125 -5.242188 1.984375 -4.632812 1.984375 -3.875 C 1.984375 -3.113281 2.203125 -2.5 2.640625 -2.03125 C 3.078125 -1.570312 3.644531 -1.34375 4.34375 -1.34375 C 5.175781 -1.34375 5.769531 -1.6875 6.125 -2.375 L 7.984375 -2.375 C 7.703125 -1.59375 7.234375 -0.988281 6.578125 -0.5625 C 5.929688 -0.144531 5.1875 0.0625 4.34375 0.0625 C 3.226562 0.0625 2.289062 -0.304688 1.53125 -1.046875 Z M 1.53125 -1.046875 "/></g></g></g><g fill="#004aad" fill-opacity="1"><g transform="translate(138.191305, 70.217639)"><g><path d="M 2.390625 0 L 0.828125 0 L 0.828125 -7.71875 L 2.390625 -7.71875 L 2.390625 -4.265625 L 5.171875 -7.71875 L 7.21875 -7.71875 L 3.859375 -3.84375 L 7.21875 0 L 5.1875 0 L 2.390625 -3.421875 Z M 2.390625 0 "/></g></g></g></svg>